<svg xmlns="http://www.w3.org/2000/svg" xmlns:xlink="http://www.w3.org/1999/xlink" width="20.887" height="40" viewBox="0 0 20.887 40">
  <defs>
    <clipPath id="clip-path">
      <rect id="Rectangle_5" data-name="Rectangle 5" width="20.887" height="40" fill="#caa368"/>
    </clipPath>
  </defs>
  <g id="minibar" clip-path="url(#clip-path)">
    <path id="Path_2" data-name="Path 2" d="M22,3.333H2A1.667,1.667,0,0,0,.333,5v8.333H23.667V5A1.667,1.667,0,0,0,22,3.333ZM8.667,11.667H5.333V8.333H8.667Z" fill="#caa368"/>
    <path id="Path_3" data-name="Path 3" d="M2,16.667H.333V33.333A1.667,1.667,0,0,0,2,35H3.667v1.667H7V35H17v1.667h3.333V35H22a1.666,1.666,0,0,0,1.667-1.667V16.667Zm6.667,6.667H5.333V20H8.667Z" fill="#caa368"/>
  </g>
</svg>
