<svg xmlns="http://www.w3.org/2000/svg" width="31.429" height="31.429" viewBox="0 0 31.429 31.429">
  <path id="phone2" d="M35.714,27.678a7.368,7.368,0,0,1-.223,1.574,8.875,8.875,0,0,1-.469,1.529A5.984,5.984,0,0,1,32.3,33.147a8.275,8.275,0,0,1-5.324,1.06,9.64,9.64,0,0,1-1.284-.279q-.714-.2-1.06-.324t-1.239-.458q-.893-.335-1.094-.4a20.213,20.213,0,0,1-3.906-1.853,33.111,33.111,0,0,1-5.9-4.81,33.112,33.112,0,0,1-4.81-5.9,20.216,20.216,0,0,1-1.853-3.906q-.067-.2-.4-1.094T4.966,13.94q-.123-.346-.324-1.06A9.647,9.647,0,0,1,4.364,11.6a8.609,8.609,0,0,1-.078-1.172A8.655,8.655,0,0,1,5.424,6.272,5.985,5.985,0,0,1,7.79,3.549,8.868,8.868,0,0,1,9.319,3.08a7.368,7.368,0,0,1,1.574-.223,1.25,1.25,0,0,1,.469.067q.4.134,1.183,1.7.246.424.67,1.205T14,7.243q.357.636.692,1.194.067.089.391.558a6.247,6.247,0,0,1,.48.792,1.457,1.457,0,0,1,.156.636,1.852,1.852,0,0,1-.636,1.116,10.881,10.881,0,0,1-1.384,1.228,13.436,13.436,0,0,0-1.384,1.183,1.7,1.7,0,0,0-.636,1.027,1.508,1.508,0,0,0,.112.5,4.867,4.867,0,0,0,.19.458q.078.156.313.536t.257.424a23.428,23.428,0,0,0,3.884,5.245,23.428,23.428,0,0,0,5.246,3.884q.045.022.424.257t.536.313a4.863,4.863,0,0,0,.458.19,1.509,1.509,0,0,0,.5.112,1.7,1.7,0,0,0,1.027-.636A13.448,13.448,0,0,0,25.8,24.877a10.882,10.882,0,0,1,1.228-1.384,1.853,1.853,0,0,1,1.116-.636,1.456,1.456,0,0,1,.636.156,6.221,6.221,0,0,1,.792.48q.469.324.558.391.558.335,1.194.692t1.417.781q.781.424,1.205.67,1.563.781,1.7,1.183A1.251,1.251,0,0,1,35.714,27.678Z" transform="translate(-4.286 -2.857)" fill="#caa368"/>
</svg>
