<svg xmlns="http://www.w3.org/2000/svg" width="14.143" height="14.143" viewBox="0 0 14.143 14.143">
  <path id="phone" d="M16.071,12.455a3.314,3.314,0,0,1-.1.708,3.982,3.982,0,0,1-.211.688,2.693,2.693,0,0,1-1.226,1.065,3.725,3.725,0,0,1-2.4.477,4.347,4.347,0,0,1-.578-.126q-.321-.09-.477-.146t-.558-.206q-.4-.151-.492-.181A9.09,9.09,0,0,1,8.276,13.9,14.9,14.9,0,0,1,5.62,11.737,14.9,14.9,0,0,1,3.455,9.08a9.1,9.1,0,0,1-.834-1.758q-.03-.09-.181-.492t-.206-.557q-.055-.156-.146-.477a4.342,4.342,0,0,1-.126-.578,3.874,3.874,0,0,1-.035-.527,3.9,3.9,0,0,1,.512-1.868A2.693,2.693,0,0,1,3.505,1.6a3.991,3.991,0,0,1,.688-.211,3.316,3.316,0,0,1,.708-.1.562.562,0,0,1,.211.03q.181.06.532.763.11.191.3.542t.352.638q.161.286.311.537.03.04.176.251A2.806,2.806,0,0,1,7,4.4a.655.655,0,0,1,.07.286.834.834,0,0,1-.286.5,4.9,4.9,0,0,1-.623.552,6.049,6.049,0,0,0-.623.532.765.765,0,0,0-.286.462.679.679,0,0,0,.05.226,2.191,2.191,0,0,0,.085.206q.035.07.141.241t.116.191a10.543,10.543,0,0,0,1.748,2.36,10.542,10.542,0,0,0,2.36,1.748q.02.01.191.116t.241.141a2.182,2.182,0,0,0,.206.085.678.678,0,0,0,.226.05.765.765,0,0,0,.462-.286,6.07,6.07,0,0,0,.532-.623,4.9,4.9,0,0,1,.552-.623.834.834,0,0,1,.5-.286.655.655,0,0,1,.286.07,2.793,2.793,0,0,1,.357.216q.211.146.251.176.251.151.537.311t.638.352q.352.191.543.3.7.352.763.532A.561.561,0,0,1,16.071,12.455Z" transform="translate(-1.928 -1.286)" fill="#fff"/>
</svg>
