<svg xmlns="http://www.w3.org/2000/svg" width="33.333" height="33.345" viewBox="0 0 33.333 33.345">
  <path id="pool" d="M30,30V8.333a5,5,0,1,0-10,0V10h3.333V8.333a1.667,1.667,0,0,1,3.333,0v3.333H13.333V8.333a4.867,4.867,0,0,0-1.45-3.517,4.9,4.9,0,0,0-3.55-1.483,5,5,0,0,0-5,5V10H6.667V8.333a1.667,1.667,0,0,1,3.333,0v25c-.933,0-1.333-.367-2.15-1.183A5.933,5.933,0,0,0,3.333,30v3.333c.933,0,1.333.367,2.15,1.183A5.933,5.933,0,0,0,10,36.667a5.933,5.933,0,0,0,4.5-2.15c.817-.817,1.217-1.183,2.15-1.183s1.333.367,2.15,1.183a5.8,5.8,0,0,0,9.033,0C28.65,33.7,29.05,33.333,30,33.333s1.333.367,2.15,1.183a5.95,5.95,0,0,0,4.517,2.15V33.333c-.933,0-1.333-.367-2.15-1.183A5.949,5.949,0,0,0,30,30Zm-3.333-5H13.333V21.667H26.667Zm0-10v3.333H13.333V15ZM23.333,33.333c-.933,0-1.333-.367-2.15-1.183A5.933,5.933,0,0,0,16.667,30a5.333,5.333,0,0,0-3.333,1.083v-2.75H26.667v2.75a10.8,10.8,0,0,0-1.183,1.067C24.65,32.967,24.25,33.333,23.333,33.333Z" transform="translate(-3.333 -3.333)" fill="#caa368"/>
</svg>
