<svg xmlns="http://www.w3.org/2000/svg" width="29.666" height="34.888" viewBox="0 0 29.666 34.888">
  <path id="safe" d="M5.192,9.449v5.088H2.967A2.937,2.937,0,0,0,0,17.444V31.981a2.937,2.937,0,0,0,2.967,2.907H26.7a2.937,2.937,0,0,0,2.967-2.907V17.444A2.937,2.937,0,0,0,26.7,14.537H24.474V9.449A9.547,9.547,0,0,0,14.833,0,9.547,9.547,0,0,0,5.192,9.449ZM8.9,14.537V9.449a5.934,5.934,0,0,1,11.866,0v5.088Zm2.966,8a2.967,2.967,0,0,1,5.933,0,2.89,2.89,0,0,1-1.357,2.442s.29,1.716.616,3.736a1.1,1.1,0,0,1-1.113,1.09H13.72a1.1,1.1,0,0,1-1.112-1.09l.616-3.736A2.89,2.89,0,0,1,11.866,22.532Z" fill="#caa368" fill-rule="evenodd"/>
</svg>
