<svg xmlns="http://www.w3.org/2000/svg" width="26.56" height="39.834" viewBox="0 0 26.56 39.834">
  <g id="shower" transform="translate(-6.55)">
    <path id="Path_4" data-name="Path 4" d="M27.022.764H18.887c-2.752-1.328-6.11-.783-8.67.552L23.96,9.26A9.441,9.441,0,0,0,22,3.884l5.022-.408a3.385,3.385,0,0,1,3.384,3.384V38.441a1.379,1.379,0,0,0,1.288,1.392,1.35,1.35,0,0,0,1.416-1.352V6.859A6.082,6.082,0,0,0,27.022.764Z" fill="#caa368"/>
    <path id="Path_5" data-name="Path 5" d="M8.484,4.271l13.787,7.962,1.72-2.978L10.2,1.293Z" fill="#caa368"/>
    <path id="Path_6" data-name="Path 6" d="M7.109,7.1a.822.822,0,1,0,1.422.823,9.533,9.533,0,0,0,.4-2.006A7.162,7.162,0,0,0,7.109,7.1Z" transform="translate(-0.45 0.438)" fill="#caa368"/>
    <path id="Path_7" data-name="Path 7" d="M10.688,10.433a12.8,12.8,0,0,0,.543-2.694A10.212,10.212,0,0,0,8.778,9.328a1.1,1.1,0,0,0,1.91,1.106Z" transform="translate(1.218 2.024)" fill="#caa368"/>
    <path id="Path_10" data-name="Path 10" d="M17.541,13.248a10.6,10.6,0,0,0,.449-2.229,8.448,8.448,0,0,0-2.03,1.314.913.913,0,1,0,1.58.915Z" transform="translate(-0.558 1.304)" fill="#caa368"/>
  </g>
</svg>
