<svg xmlns="http://www.w3.org/2000/svg" xmlns:xlink="http://www.w3.org/1999/xlink" width="20.887" height="40" viewBox="0 0 20.887 40">
  <defs>
    <clipPath id="clip-path">
      <rect id="Rectangle_7" data-name="Rectangle 7" width="20.887" height="40" fill="#caa368"/>
    </clipPath>
  </defs>
  <g id="sushi" clip-path="url(#clip-path)">
    <path id="Path_17" data-name="Path 17" d="M20.87,37.161h0a.026.026,0,0,1,0-.011,1.735,1.735,0,0,0-.158-.4A51.992,51.992,0,0,1,18.093,24.6c-.361-3.438-.423-7.385-.477-11.583A125.887,125.887,0,0,1,18.041.389a1.613,1.613,0,0,0-.79-.215C14.507.191,12.39,8,12.517,17.628c.015,1.206.068,2.385.148,3.523,1.364.381,2.3,1.144,2.31,2.029l.009.923a.023.023,0,0,0,.014,0A52.47,52.47,0,0,1,12.663,36.8a1.568,1.568,0,0,0-.148.4.03.03,0,0,1,0,.008h0a1.473,1.473,0,0,0-.036.316c.015,1.337,1.922,2.41,4.25,2.395s4.2-1.109,4.185-2.444A1.333,1.333,0,0,0,20.87,37.161Z" fill="#caa368"/>
    <path id="Path_18" data-name="Path 18" d="M9.247,9.273,8.74,2.558V.592a.707.707,0,0,0-1.412,0V9.1a.662.662,0,0,1-.553.322.671.671,0,0,1-.7-.653L5.967,4.234V.592a.705.705,0,0,0-1.409,0V9.175A.678.678,0,0,1,3.31,8.832L3.1,3.929V.592a.69.69,0,0,0-.705-.67.691.691,0,0,0-.707.67V1.635L.731,9.275C.7,10.7,1.878,11.91,3.721,12.26,3.333,22.108,2.009,30.708.243,35.986a2.343,2.343,0,0,0-.165.482s0,.007,0,.011a1.869,1.869,0,0,0-.046.377c-.038,1.585,1.818,2.873,4.146,2.872s4.25-1.29,4.289-2.879a2.211,2.211,0,0,0-.033-.374s0-.007,0-.014a2.221,2.221,0,0,0-.142-.478C6.778,30.705,5.873,22.108,5.961,12.256,7.821,11.906,9.214,10.7,9.247,9.273Z" fill="#caa368"/>
  </g>
</svg>
