<svg id="TGC" xmlns="http://www.w3.org/2000/svg" width="190.614" height="74.986" viewBox="0 0 190.614 74.986">
  <path id="Path_19" data-name="Path 19" d="M7.914,68.665l.1,2.035H7.767a2.458,2.458,0,0,0-.192-.768,1.26,1.26,0,0,0-.531-.544,1.8,1.8,0,0,0-.864-.179H4.957V75.84a1.776,1.776,0,0,0,.173,1,.961.961,0,0,0,.749.269h.3v.237H2.5v-.237h.307a.882.882,0,0,0,.781-.333,1.942,1.942,0,0,0,.141-.934V69.209H2.685a2.911,2.911,0,0,0-.864.09,1.186,1.186,0,0,0-.57.467A1.892,1.892,0,0,0,.97,70.7H.727l.1-2.035Zm5.307-.2a3.922,3.922,0,0,1,2.925,1.286,4.413,4.413,0,0,1,1.242,3.2,4.563,4.563,0,0,1-1.248,3.283,4.026,4.026,0,0,1-3.021,1.306A4.013,4.013,0,0,1,10.1,76.268a4.577,4.577,0,0,1-1.216-3.3A4.391,4.391,0,0,1,10.3,69.6,4.154,4.154,0,0,1,13.222,68.466Zm-.122.467a2.29,2.29,0,0,0-1.869.864,4.885,4.885,0,0,0-.877,3.149,5.155,5.155,0,0,0,.909,3.271,2.246,2.246,0,0,0,1.843.871,2.51,2.51,0,0,0,2.016-.954,4.637,4.637,0,0,0,.8-3.008,5.254,5.254,0,0,0-.877-3.322A2.365,2.365,0,0,0,13.1,68.934ZM24.481,68.9v-.237h3.072V68.9h-.326a.882.882,0,0,0-.787.429,1.958,1.958,0,0,0-.134.922v3.52a6.181,6.181,0,0,1-.262,2.029,2.538,2.538,0,0,1-1.018,1.235,3.628,3.628,0,0,1-2.061.512,3.887,3.887,0,0,1-2.157-.493,2.669,2.669,0,0,1-1.043-1.325,7.354,7.354,0,0,1-.2-2.138V70.2a1.681,1.681,0,0,0-.224-1.05.9.9,0,0,0-.71-.25H18.3v-.237h3.751V68.9h-.333a.86.86,0,0,0-.768.339,1.9,1.9,0,0,0-.16.96v3.783a8.626,8.626,0,0,0,.09,1.158,2.5,2.5,0,0,0,.339,1.018,1.832,1.832,0,0,0,.7.6A2.443,2.443,0,0,0,23.041,77a3.1,3.1,0,0,0,1.523-.371,1.975,1.975,0,0,0,.915-.947,5.469,5.469,0,0,0,.25-1.965V70.2a1.792,1.792,0,0,0-.179-1.018.94.94,0,0,0-.742-.282Zm12.405,8.442H34.57l-2.938-4.058q-.326.013-.531.013h-.179l-.2-.013v2.522a1.772,1.772,0,0,0,.179,1.018.912.912,0,0,0,.73.282h.339v.237H28.252v-.237h.326a.873.873,0,0,0,.787-.358,2.021,2.021,0,0,0,.134-.941V70.2a1.772,1.772,0,0,0-.179-1.018.94.94,0,0,0-.742-.282h-.326v-.237h3.162a7.369,7.369,0,0,1,2.035.2,2.283,2.283,0,0,1,1.114.742,1.911,1.911,0,0,1,.461,1.286,2.019,2.019,0,0,1-.525,1.389,2.928,2.928,0,0,1-1.613.832l1.792,2.49a4.454,4.454,0,0,0,1.056,1.139,2.661,2.661,0,0,0,1.152.358Zm-6.164-4.461q.122,0,.211.006h.147a2.807,2.807,0,0,0,1.869-.538,1.717,1.717,0,0,0,.634-1.37,1.771,1.771,0,0,0-.512-1.319,1.8,1.8,0,0,0-1.344-.512,5.646,5.646,0,0,0-1,.122Zm10.421,4.224v.237H37.425v-.237h.307a.927.927,0,0,0,.781-.314,1.949,1.949,0,0,0,.154-.986V70.2a2.873,2.873,0,0,0-.083-.87.577.577,0,0,0-.262-.275,1.213,1.213,0,0,0-.589-.154h-.307v-.237h3.719V68.9h-.314a.919.919,0,0,0-.774.314,1.881,1.881,0,0,0-.16.986v5.607a2.876,2.876,0,0,0,.083.87.573.573,0,0,0,.269.275,1.177,1.177,0,0,0,.582.154ZM47.8,68.466v3h-.237a3.7,3.7,0,0,0-.416-1.376,2.125,2.125,0,0,0-.845-.813,2.346,2.346,0,0,0-1.139-.3,1.543,1.543,0,0,0-1.1.41,1.227,1.227,0,0,0-.435.922,1.1,1.1,0,0,0,.275.723,7.077,7.077,0,0,0,1.888,1.28,12.465,12.465,0,0,1,1.658,1,2.365,2.365,0,0,1,.685.819,2.144,2.144,0,0,1,.243.992,2.252,2.252,0,0,1-.768,1.7,2.766,2.766,0,0,1-1.965.71,4.167,4.167,0,0,1-.71-.058,7.589,7.589,0,0,1-.826-.23,3.6,3.6,0,0,0-.787-.2.346.346,0,0,0-.256.1.789.789,0,0,0-.134.4h-.237V74.566h.237a4.246,4.246,0,0,0,.448,1.4,2.166,2.166,0,0,0,.858.768,2.688,2.688,0,0,0,1.274.307,1.8,1.8,0,0,0,1.261-.422,1.3,1.3,0,0,0,.467-1,1.335,1.335,0,0,0-.179-.646,1.887,1.887,0,0,0-.544-.608,15.424,15.424,0,0,0-1.363-.813,13.72,13.72,0,0,1-1.587-1,2.7,2.7,0,0,1-.71-.819,2.032,2.032,0,0,1-.243-.986,2.127,2.127,0,0,1,.717-1.606,2.547,2.547,0,0,1,1.824-.678,3.659,3.659,0,0,1,1.466.339,1.508,1.508,0,0,0,.506.16.377.377,0,0,0,.269-.1.794.794,0,0,0,.173-.4Zm6.978,8.877-3.354-7.3v5.8a1.776,1.776,0,0,0,.173,1,.949.949,0,0,0,.749.269h.307v.237H49.634v-.237h.307a.882.882,0,0,0,.781-.333,1.943,1.943,0,0,0,.141-.934V70.169a1.984,1.984,0,0,0-.128-.832.693.693,0,0,0-.333-.307,1.706,1.706,0,0,0-.768-.128v-.237h2.458l3.149,6.791,3.1-6.791H60.8V68.9h-.3a.889.889,0,0,0-.788.333,1.941,1.941,0,0,0-.141.934V75.84a1.726,1.726,0,0,0,.179,1,.951.951,0,0,0,.749.269h.3v.237H57.109v-.237h.307a.872.872,0,0,0,.781-.333,1.95,1.95,0,0,0,.14-.934v-5.8l-3.347,7.3Zm18.276-8.877.224,2.739h-.224a3.747,3.747,0,0,0-.877-1.542,2.745,2.745,0,0,0-1.991-.749,2.831,2.831,0,0,0-2.522,1.312,4.713,4.713,0,0,0-.723,2.637,5.272,5.272,0,0,0,.48,2.266,3.4,3.4,0,0,0,1.255,1.5,3.05,3.05,0,0,0,1.6.474,3.53,3.53,0,0,0,.928-.122,3.7,3.7,0,0,0,.864-.358V74.118a2.223,2.223,0,0,0-.1-.851.631.631,0,0,0-.307-.307,1.707,1.707,0,0,0-.73-.109v-.243h3.36v.243h-.16a.715.715,0,0,0-.685.333,2.252,2.252,0,0,0-.128.935v2.656a6.5,6.5,0,0,1-1.453.582,6.361,6.361,0,0,1-1.594.186,4.627,4.627,0,0,1-3.821-1.613,4.306,4.306,0,0,1-.979-2.791,4.892,4.892,0,0,1,2.343-4.116,4.834,4.834,0,0,1,3.11-.48,7.786,7.786,0,0,1,1.1.339,1.765,1.765,0,0,0,.48.134.25.25,0,0,0,.2-.109.854.854,0,0,0,.109-.442Zm10.613,8.877H81.352l-2.938-4.058q-.326.013-.531.013H77.7l-.2-.013v2.522a1.776,1.776,0,0,0,.179,1.018.913.913,0,0,0,.73.282h.339v.237H75.035v-.237h.327a.873.873,0,0,0,.787-.358,2.021,2.021,0,0,0,.134-.941V70.2a1.771,1.771,0,0,0-.179-1.018.941.941,0,0,0-.742-.282h-.327v-.237H78.2a7.373,7.373,0,0,1,2.036.2,2.285,2.285,0,0,1,1.114.742,1.912,1.912,0,0,1,.46,1.286,2.018,2.018,0,0,1-.525,1.389,2.926,2.926,0,0,1-1.613.832l1.793,2.49a4.455,4.455,0,0,0,1.056,1.139,2.66,2.66,0,0,0,1.152.358ZM77.5,72.883q.122,0,.211.006h.147a2.805,2.805,0,0,0,1.868-.538,1.717,1.717,0,0,0,.634-1.37,1.771,1.771,0,0,0-.512-1.319,1.8,1.8,0,0,0-1.344-.512,5.651,5.651,0,0,0-1,.122Zm12.374,1.555h-3.36l-.589,1.37a2.166,2.166,0,0,0-.218.755.449.449,0,0,0,.186.352,1.705,1.705,0,0,0,.819.192v.237H83.984v-.237a1.472,1.472,0,0,0,.7-.25,3.911,3.911,0,0,0,.723-1.248l3.053-7.143h.224l3.021,7.22a3.371,3.371,0,0,0,.659,1.133,1.377,1.377,0,0,0,.832.288v.237H89.776v-.237a1.265,1.265,0,0,0,.7-.173.444.444,0,0,0,.186-.358,2.661,2.661,0,0,0-.256-.89Zm-.179-.474-1.472-3.507-1.511,3.507Zm4.206,3.379v-.237h.327a.862.862,0,0,0,.781-.352,2,2,0,0,0,.141-.947V70.2a1.8,1.8,0,0,0-.179-1.018.941.941,0,0,0-.743-.282h-.327v-.237h3.533a7.689,7.689,0,0,1,2.957.442,3.5,3.5,0,0,1,1.633,1.472,4.527,4.527,0,0,1,.62,2.381,4.344,4.344,0,0,1-1.1,3.027,4.843,4.843,0,0,1-3.764,1.357Zm2.477-.627a6.538,6.538,0,0,0,1.363.179,3.236,3.236,0,0,0,2.464-1.043,4.585,4.585,0,0,0,0-5.664,3.305,3.305,0,0,0-2.515-1.037,5.432,5.432,0,0,0-1.312.186Zm11.144.39v.237h-3.718v-.237h.307a.927.927,0,0,0,.781-.314,1.953,1.953,0,0,0,.153-.986V70.2a2.887,2.887,0,0,0-.083-.87.575.575,0,0,0-.263-.275,1.212,1.212,0,0,0-.589-.154h-.307v-.237h3.718V68.9h-.313a.919.919,0,0,0-.774.314,1.883,1.883,0,0,0-.16.986v5.607a2.886,2.886,0,0,0,.083.87.577.577,0,0,0,.269.275,1.177,1.177,0,0,0,.582.154ZM108,68.665h2.355l5.306,6.509V70.169a1.721,1.721,0,0,0-.179-1,.948.948,0,0,0-.749-.269h-.3v-.237h3.021V68.9h-.307a.882.882,0,0,0-.781.333,1.941,1.941,0,0,0-.141.934v7.316H116L110.274,70.5V75.84a1.776,1.776,0,0,0,.173,1,.961.961,0,0,0,.749.269h.307v.237h-3.021v-.237h.3a.889.889,0,0,0,.787-.333,1.941,1.941,0,0,0,.141-.934V69.8a3.838,3.838,0,0,0-.576-.582A1.818,1.818,0,0,0,108,68.9Zm18.018-.2.224,2.739h-.224a3.747,3.747,0,0,0-.877-1.542,2.745,2.745,0,0,0-1.991-.749,2.831,2.831,0,0,0-2.522,1.312,4.713,4.713,0,0,0-.723,2.637,5.272,5.272,0,0,0,.48,2.266,3.4,3.4,0,0,0,1.255,1.5,3.05,3.05,0,0,0,1.6.474,3.53,3.53,0,0,0,.928-.122,3.7,3.7,0,0,0,.864-.358V74.118a2.222,2.222,0,0,0-.1-.851.631.631,0,0,0-.307-.307,1.707,1.707,0,0,0-.73-.109v-.243h3.36v.243h-.16a.715.715,0,0,0-.685.333,2.251,2.251,0,0,0-.128.935v2.656a6.508,6.508,0,0,1-1.453.582,6.361,6.361,0,0,1-1.594.186,4.626,4.626,0,0,1-3.821-1.613,4.306,4.306,0,0,1-.979-2.791,4.892,4.892,0,0,1,2.343-4.116,4.834,4.834,0,0,1,3.11-.48,7.786,7.786,0,0,1,1.1.339,1.765,1.765,0,0,0,.48.134.25.25,0,0,0,.2-.109.854.854,0,0,0,.109-.442Zm13.252,0,.2,2.951h-.2a3.714,3.714,0,0,0-1.133-1.907,2.761,2.761,0,0,0-1.767-.582,2.86,2.86,0,0,0-1.562.442,2.9,2.9,0,0,0-1.1,1.4,6.278,6.278,0,0,0-.4,2.387,5.069,5.069,0,0,0,.377,2.042,2.838,2.838,0,0,0,1.133,1.325,3.286,3.286,0,0,0,1.735.461,3.026,3.026,0,0,0,1.492-.358,4.96,4.96,0,0,0,1.421-1.44l.2.128a4.556,4.556,0,0,1-1.524,1.7,3.854,3.854,0,0,1-2.067.538,3.913,3.913,0,0,1-3.341-1.6,4.575,4.575,0,0,1-.883-2.8,4.978,4.978,0,0,1,.582-2.387,4.2,4.2,0,0,1,1.6-1.683,4.331,4.331,0,0,1,2.234-.6,4.087,4.087,0,0,1,1.856.461,1.009,1.009,0,0,0,.384.141.422.422,0,0,0,.3-.122,1,1,0,0,0,.237-.48Zm5.973,0a3.921,3.921,0,0,1,2.925,1.286,4.412,4.412,0,0,1,1.242,3.2,4.563,4.563,0,0,1-1.248,3.283,4.176,4.176,0,0,1-6.036.032,4.578,4.578,0,0,1-1.216-3.3A4.393,4.393,0,0,1,142.32,69.6,4.156,4.156,0,0,1,145.245,68.466Zm-.122.467a2.29,2.29,0,0,0-1.869.864,4.886,4.886,0,0,0-.877,3.149,5.156,5.156,0,0,0,.909,3.271,2.246,2.246,0,0,0,1.843.871,2.509,2.509,0,0,0,2.016-.954,4.636,4.636,0,0,0,.8-3.008,5.255,5.255,0,0,0-.877-3.322A2.366,2.366,0,0,0,145.123,68.934ZM156.5,68.9v-.237h3.072V68.9h-.327a.882.882,0,0,0-.788.429,1.959,1.959,0,0,0-.134.922v3.52a6.186,6.186,0,0,1-.262,2.029,2.541,2.541,0,0,1-1.018,1.235,3.629,3.629,0,0,1-2.061.512,3.887,3.887,0,0,1-2.157-.493,2.67,2.67,0,0,1-1.043-1.325,7.354,7.354,0,0,1-.2-2.138V70.2a1.682,1.682,0,0,0-.224-1.05.9.9,0,0,0-.711-.25h-.327v-.237h3.751V68.9h-.333a.86.86,0,0,0-.768.339,1.89,1.89,0,0,0-.16.96v3.783a8.572,8.572,0,0,0,.09,1.158,2.493,2.493,0,0,0,.339,1.018,1.836,1.836,0,0,0,.7.6,2.444,2.444,0,0,0,1.127.237,3.1,3.1,0,0,0,1.523-.371,1.976,1.976,0,0,0,.915-.947,5.477,5.477,0,0,0,.25-1.965V70.2a1.8,1.8,0,0,0-.179-1.018.941.941,0,0,0-.743-.282Zm3.374-.237h2.355l5.306,6.509V70.169a1.721,1.721,0,0,0-.179-1,.949.949,0,0,0-.749-.269h-.3v-.237h3.021V68.9h-.307a.882.882,0,0,0-.781.333,1.941,1.941,0,0,0-.141.934v7.316h-.23L162.151,70.5V75.84a1.776,1.776,0,0,0,.173,1,.961.961,0,0,0,.749.269h.307v.237h-3.021v-.237h.3a.89.89,0,0,0,.788-.333,1.941,1.941,0,0,0,.141-.934V69.8a3.838,3.838,0,0,0-.576-.582,1.818,1.818,0,0,0-1.133-.32Zm17.865-.2.2,2.951h-.2a3.714,3.714,0,0,0-1.133-1.907,2.761,2.761,0,0,0-1.767-.582,2.86,2.86,0,0,0-1.562.442,2.9,2.9,0,0,0-1.1,1.4,6.278,6.278,0,0,0-.4,2.387,5.069,5.069,0,0,0,.377,2.042,2.836,2.836,0,0,0,1.133,1.325,3.282,3.282,0,0,0,1.734.461,3.024,3.024,0,0,0,1.492-.358,4.959,4.959,0,0,0,1.421-1.44l.2.128a4.559,4.559,0,0,1-1.523,1.7,3.858,3.858,0,0,1-2.068.538,3.913,3.913,0,0,1-3.341-1.6,4.575,4.575,0,0,1-.883-2.8,4.978,4.978,0,0,1,.582-2.387,4.2,4.2,0,0,1,1.6-1.683,4.331,4.331,0,0,1,2.234-.6,4.088,4.088,0,0,1,1.856.461,1.008,1.008,0,0,0,.385.141.422.422,0,0,0,.3-.122,1,1,0,0,0,.237-.48Zm5.224,8.641v.237h-3.719v-.237h.307a.925.925,0,0,0,.78-.314,1.945,1.945,0,0,0,.154-.986V70.2a2.863,2.863,0,0,0-.084-.87.576.576,0,0,0-.262-.275,1.213,1.213,0,0,0-.589-.154h-.307v-.237h3.719V68.9h-.314a.919.919,0,0,0-.774.314,1.878,1.878,0,0,0-.16.986v5.607a2.887,2.887,0,0,0,.083.87.573.573,0,0,0,.269.275,1.179,1.179,0,0,0,.583.154Zm8.162-2.163.211.045-.742,2.355h-6.721v-.237h.327a.872.872,0,0,0,.787-.358,2.067,2.067,0,0,0,.134-.947V70.2a1.79,1.79,0,0,0-.179-1.018.939.939,0,0,0-.742-.282h-.327v-.237h3.93V68.9a2.425,2.425,0,0,0-.973.128.783.783,0,0,0-.377.339,2.79,2.79,0,0,0-.1.979V75.8a1.773,1.773,0,0,0,.1.73.457.457,0,0,0,.237.2,4.152,4.152,0,0,0,1,.064h.634a4.588,4.588,0,0,0,1.4-.147,1.837,1.837,0,0,0,.736-.518A4.35,4.35,0,0,0,191.13,74.944Z" transform="translate(-0.727 -31.072)" fill="#fff"/>
  <path id="Path_20" data-name="Path 20" d="M128.461,97.6a2.288,2.288,0,0,1,1.706.75,2.574,2.574,0,0,1,.724,1.867,2.662,2.662,0,0,1-.728,1.915,2.436,2.436,0,0,1-3.521.019,2.672,2.672,0,0,1-.709-1.923,2.561,2.561,0,0,1,.821-1.968A2.422,2.422,0,0,1,128.461,97.6Zm-.071.273a1.335,1.335,0,0,0-1.09.5,2.847,2.847,0,0,0-.512,1.837,3.007,3.007,0,0,0,.53,1.908,1.309,1.309,0,0,0,1.075.508,1.464,1.464,0,0,0,1.176-.557,2.707,2.707,0,0,0,.466-1.755,3.066,3.066,0,0,0-.511-1.938A1.38,1.38,0,0,0,128.39,97.871Zm4.556.119v1.99h.922a.655.655,0,0,0,.463-.138.928.928,0,0,0,.2-.557h.138V101h-.138a.977.977,0,0,0-.078-.433.464.464,0,0,0-.2-.205.808.808,0,0,0-.381-.071h-.922v1.59a1.661,1.661,0,0,0,.049.508.332.332,0,0,0,.157.161.709.709,0,0,0,.344.09h.183v.138H131.5v-.138h.179a.541.541,0,0,0,.456-.183,1.134,1.134,0,0,0,.09-.575V98.61a1.687,1.687,0,0,0-.048-.508.337.337,0,0,0-.154-.161.693.693,0,0,0-.344-.09H131.5v-.138h3.767l.049,1.113h-.131a1.471,1.471,0,0,0-.228-.519.721.721,0,0,0-.317-.243,1.677,1.677,0,0,0-.582-.075Zm8.492-.392V99.35H141.3a2.156,2.156,0,0,0-.243-.8,1.237,1.237,0,0,0-.493-.474,1.369,1.369,0,0,0-.665-.175.9.9,0,0,0-.642.239.715.715,0,0,0-.254.538.64.64,0,0,0,.161.422,4.135,4.135,0,0,0,1.1.747,7.349,7.349,0,0,1,.967.586,1.382,1.382,0,0,1,.4.478,1.254,1.254,0,0,1,.142.579,1.313,1.313,0,0,1-.448.993,1.612,1.612,0,0,1-1.146.415,2.431,2.431,0,0,1-.415-.034,4.252,4.252,0,0,1-.482-.134,2.114,2.114,0,0,0-.459-.119.2.2,0,0,0-.149.056.462.462,0,0,0-.079.232h-.138v-1.736h.138a2.471,2.471,0,0,0,.262.818,1.264,1.264,0,0,0,.5.448,1.573,1.573,0,0,0,.743.179,1.049,1.049,0,0,0,.736-.246.761.761,0,0,0,.273-.583.78.78,0,0,0-.1-.377,1.1,1.1,0,0,0-.317-.355,9.179,9.179,0,0,0-.8-.474,7.969,7.969,0,0,1-.926-.582,1.585,1.585,0,0,1-.415-.478,1.187,1.187,0,0,1-.141-.575,1.241,1.241,0,0,1,.418-.937,1.487,1.487,0,0,1,1.064-.4,2.136,2.136,0,0,1,.855.2.877.877,0,0,0,.295.093.22.22,0,0,0,.157-.056.462.462,0,0,0,.1-.235Zm3.738,0a2.288,2.288,0,0,1,1.706.75,2.574,2.574,0,0,1,.724,1.867,2.659,2.659,0,0,1-.728,1.915,2.436,2.436,0,0,1-3.521.019,2.67,2.67,0,0,1-.71-1.923,2.561,2.561,0,0,1,.821-1.968A2.422,2.422,0,0,1,145.175,97.6Zm-.071.273a1.335,1.335,0,0,0-1.09.5,2.848,2.848,0,0,0-.512,1.837,3.007,3.007,0,0,0,.53,1.908,1.31,1.31,0,0,0,1.075.508,1.464,1.464,0,0,0,1.176-.557,2.7,2.7,0,0,0,.466-1.755,3.066,3.066,0,0,0-.511-1.938A1.379,1.379,0,0,0,145.1,97.871Zm6.639-.019v-.138h1.793v.138h-.191a.514.514,0,0,0-.459.25,1.149,1.149,0,0,0-.078.538v2.054a3.6,3.6,0,0,1-.153,1.184,1.48,1.48,0,0,1-.593.72,2.116,2.116,0,0,1-1.2.3,2.266,2.266,0,0,1-1.258-.288,1.555,1.555,0,0,1-.609-.773,4.307,4.307,0,0,1-.119-1.247V98.61a.978.978,0,0,0-.131-.612.523.523,0,0,0-.414-.146h-.191v-.138h2.188v.138h-.194a.5.5,0,0,0-.448.2,1.1,1.1,0,0,0-.093.56v2.206a5.022,5.022,0,0,0,.052.676,1.452,1.452,0,0,0,.2.593,1.072,1.072,0,0,0,.407.351,1.422,1.422,0,0,0,.657.138,1.8,1.8,0,0,0,.889-.217,1.15,1.15,0,0,0,.534-.552,3.191,3.191,0,0,0,.145-1.146V98.61a1.044,1.044,0,0,0-.1-.594.549.549,0,0,0-.433-.164Zm6.494-.138.056,1.187h-.142a1.426,1.426,0,0,0-.112-.448.733.733,0,0,0-.31-.317,1.047,1.047,0,0,0-.5-.1h-.713V101.9a1.035,1.035,0,0,0,.1.582.561.561,0,0,0,.437.157h.175v.138h-2.147v-.138h.179a.514.514,0,0,0,.456-.194,1.128,1.128,0,0,0,.082-.545V98.032h-.608a1.7,1.7,0,0,0-.5.052.694.694,0,0,0-.333.273,1.1,1.1,0,0,0-.164.545h-.142l.06-1.187Zm2.013,2.348H162.6V98.614a1.7,1.7,0,0,0-.049-.511.333.333,0,0,0-.157-.161.687.687,0,0,0-.34-.09h-.179v-.138h2.166v.138h-.179a.71.71,0,0,0-.34.086.319.319,0,0,0-.164.183,1.86,1.86,0,0,0-.041.493v3.267a1.685,1.685,0,0,0,.048.508.336.336,0,0,0,.154.161.709.709,0,0,0,.344.09h.179v.138h-2.166v-.138h.179a.536.536,0,0,0,.452-.183,1.1,1.1,0,0,0,.093-.575v-1.542H160.25v1.542a1.679,1.679,0,0,0,.049.508.337.337,0,0,0,.157.161.691.691,0,0,0,.34.09h.182v.138h-2.169v-.138h.179a.541.541,0,0,0,.456-.183,1.14,1.14,0,0,0,.09-.575V98.614a1.7,1.7,0,0,0-.049-.511.336.336,0,0,0-.153-.161.708.708,0,0,0-.344-.09h-.179v-.138h2.169v.138H160.8a.712.712,0,0,0-.34.086.324.324,0,0,0-.161.183,1.721,1.721,0,0,0-.045.493Zm9.321,1.02h-1.96l-.344.8a1.267,1.267,0,0,0-.127.441.263.263,0,0,0,.109.205.993.993,0,0,0,.478.112v.138h-1.594v-.138a.861.861,0,0,0,.411-.145,2.293,2.293,0,0,0,.422-.728l1.781-4.167h.131l1.763,4.212a1.976,1.976,0,0,0,.384.661.8.8,0,0,0,.486.168v.138h-2v-.138a.74.74,0,0,0,.407-.1.258.258,0,0,0,.109-.209,1.54,1.54,0,0,0-.15-.519Zm-.1-.276-.859-2.046-.881,2.046Zm3.888-2.815v1.99h.922a.655.655,0,0,0,.463-.138.928.928,0,0,0,.2-.557h.138V101h-.138a.977.977,0,0,0-.078-.433.464.464,0,0,0-.2-.205.808.808,0,0,0-.381-.071h-.922v1.59a1.66,1.66,0,0,0,.049.508.332.332,0,0,0,.157.161.709.709,0,0,0,.344.09h.183v.138h-2.173v-.138h.179a.541.541,0,0,0,.456-.183,1.134,1.134,0,0,0,.09-.575V98.61a1.662,1.662,0,0,0-.049-.508.336.336,0,0,0-.153-.161.694.694,0,0,0-.344-.09h-.179v-.138h3.767l.049,1.113H175.6a1.472,1.472,0,0,0-.228-.519.721.721,0,0,0-.317-.243,1.677,1.677,0,0,0-.582-.075Zm8.051,4.786h-1.352l-1.714-2.367c-.127,0-.23.008-.31.008h-.1l-.116-.008v1.471a1.03,1.03,0,0,0,.1.594.531.531,0,0,0,.425.164h.2v.138h-2.169v-.138h.19a.508.508,0,0,0,.459-.209,1.175,1.175,0,0,0,.079-.549V98.61a1.031,1.031,0,0,0-.1-.594.548.548,0,0,0-.433-.164h-.19v-.138h1.844a4.3,4.3,0,0,1,1.187.12,1.333,1.333,0,0,1,.649.433,1.115,1.115,0,0,1,.269.75,1.181,1.181,0,0,1-.306.811,1.709,1.709,0,0,1-.941.485l1.045,1.453a2.606,2.606,0,0,0,.616.664,1.551,1.551,0,0,0,.672.209Zm-3.6-2.6c.047,0,.088,0,.123,0h.086a1.636,1.636,0,0,0,1.09-.314,1,1,0,0,0,.37-.8,1.032,1.032,0,0,0-.3-.769,1.052,1.052,0,0,0-.784-.3,3.3,3.3,0,0,0-.587.071Zm6.079,2.464v.138h-2.169v-.138h.179a.541.541,0,0,0,.456-.183,1.134,1.134,0,0,0,.09-.575V98.61a1.663,1.663,0,0,0-.049-.508.336.336,0,0,0-.153-.161.707.707,0,0,0-.344-.09h-.179v-.138h2.169v.138H183.7a.536.536,0,0,0-.452.183,1.1,1.1,0,0,0-.093.575v3.27a1.662,1.662,0,0,0,.049.508.332.332,0,0,0,.157.161.688.688,0,0,0,.34.09Zm4.981-5.04.116,1.721h-.116a2.164,2.164,0,0,0-.661-1.113,1.61,1.61,0,0,0-1.03-.34,1.666,1.666,0,0,0-.911.258,1.689,1.689,0,0,0-.642.814,3.652,3.652,0,0,0-.232,1.393,2.955,2.955,0,0,0,.22,1.191,1.657,1.657,0,0,0,.661.773,1.918,1.918,0,0,0,1.012.269,1.768,1.768,0,0,0,.87-.209,2.9,2.9,0,0,0,.829-.84l.116.074a2.659,2.659,0,0,1-.889.99,2.249,2.249,0,0,1-1.206.314,2.283,2.283,0,0,1-1.949-.933,2.669,2.669,0,0,1-.516-1.635,2.9,2.9,0,0,1,.34-1.393,2.447,2.447,0,0,1,.933-.982,2.529,2.529,0,0,1,1.3-.351,2.387,2.387,0,0,1,1.083.269.586.586,0,0,0,.224.082.246.246,0,0,0,.175-.071.578.578,0,0,0,.138-.28Zm4.186,3.484h-1.96l-.344.8a1.262,1.262,0,0,0-.127.441.262.262,0,0,0,.108.205.994.994,0,0,0,.478.112v.138h-1.594v-.138a.861.861,0,0,0,.411-.145,2.294,2.294,0,0,0,.422-.728L192.23,97.6h.131l1.763,4.212a1.976,1.976,0,0,0,.384.661.8.8,0,0,0,.486.168v.138h-2v-.138a.739.739,0,0,0,.407-.1.258.258,0,0,0,.109-.209,1.54,1.54,0,0,0-.15-.519Zm-.1-.276-.859-2.046-.881,2.046Z" transform="translate(-65.308 -44.293)" fill="#fff"/>
  <path id="Path_21" data-name="Path 21" d="M126.541,128.971a1.649,1.649,0,0,0,.61.854,1.782,1.782,0,0,0,1.037.286,2.109,2.109,0,0,0,.363-.034v.26a4.771,4.771,0,0,1-1.152.162,2.645,2.645,0,0,1-1.421-.388,2.385,2.385,0,0,1-.938-1.139,2.851,2.851,0,0,1-1.694-1.028,3,3,0,0,1-.64-1.924,2.9,2.9,0,0,1,.871-2.155,3.253,3.253,0,0,1,4.412,0,2.916,2.916,0,0,1,.866,2.155,3.005,3.005,0,0,1-.678,1.959A2.643,2.643,0,0,1,126.541,128.971Zm-.76-5.645a1.3,1.3,0,0,0-1.186.8,4.2,4.2,0,0,0-.35,1.907,3.742,3.742,0,0,0,.525,2.2,1.28,1.28,0,0,0,2.022.008,3.525,3.525,0,0,0,.525-2.116,4.567,4.567,0,0,0-.328-2.014A1.3,1.3,0,0,0,125.782,123.325Zm7.619,1.6v3.123a1.162,1.162,0,0,0,.085.572.494.494,0,0,0,.346.141v.153h-1.626v-.533a2.1,2.1,0,0,1-.571.5,1.334,1.334,0,0,1-.64.153.957.957,0,0,1-.6-.2,1.023,1.023,0,0,1-.35-.487,3.548,3.548,0,0,1-.09-.968V125.8a1.123,1.123,0,0,0-.085-.564.5.5,0,0,0-.346-.145v-.158h1.626v2.726a2.383,2.383,0,0,0,.038.551.378.378,0,0,0,.128.187.34.34,0,0,0,.2.064.494.494,0,0,0,.277-.081,1.746,1.746,0,0,0,.41-.448V125.8a1.123,1.123,0,0,0-.085-.564.5.5,0,0,0-.346-.145v-.158Zm3.3,3.4a2.1,2.1,0,0,1-1.31.644.78.78,0,0,1-.567-.222.765.765,0,0,1-.226-.564,1.094,1.094,0,0,1,.393-.819,7.358,7.358,0,0,1,1.711-.973V126a1.828,1.828,0,0,0-.051-.567.429.429,0,0,0-.184-.2.545.545,0,0,0-.307-.09.785.785,0,0,0-.457.123.217.217,0,0,0-.111.179.371.371,0,0,0,.119.222.546.546,0,0,1,.162.354.475.475,0,0,1-.158.358.566.566,0,0,1-.405.145.658.658,0,0,1-.452-.162.5.5,0,0,1-.179-.38.877.877,0,0,1,.243-.585,1.535,1.535,0,0,1,.678-.431,2.77,2.77,0,0,1,.9-.149,1.476,1.476,0,0,1,.9.243,1.12,1.12,0,0,1,.431.521,3.391,3.391,0,0,1,.06.824v1.549a1.6,1.6,0,0,0,.022.346.2.2,0,0,0,.064.1.152.152,0,0,0,.1.034q.111,0,.226-.158l.128.1a1.566,1.566,0,0,1-.444.461.955.955,0,0,1-.516.141.817.817,0,0,1-.534-.158A.734.734,0,0,1,136.7,128.33Zm0-.311v-1.335a2.484,2.484,0,0,0-.768.648.786.786,0,0,0-.167.465.488.488,0,0,0,.141.345.386.386,0,0,0,.3.115A.819.819,0,0,0,136.7,128.019Zm3.817-4.886v4.958a.962.962,0,0,0,.1.542.538.538,0,0,0,.384.132v.153h-2.155v-.153a.52.52,0,0,0,.393-.153.954.954,0,0,0,.085-.521v-4.131a.931.931,0,0,0-.1-.533.519.519,0,0,0-.38-.137v-.158Zm1.918-.137a.662.662,0,0,1,.661.661.625.625,0,0,1-.2.465.658.658,0,0,1-.93-.93A.625.625,0,0,1,142.435,123Zm.6,1.933v3.162a.962.962,0,0,0,.1.542.539.539,0,0,0,.384.132v.153H141.36v-.153a.518.518,0,0,0,.392-.153.948.948,0,0,0,.086-.521v-2.33a.936.936,0,0,0-.1-.537.52.52,0,0,0-.38-.137v-.158Zm2.545-1.459v1.459h.948v.422h-.948v2.462a2.015,2.015,0,0,0,.03.448.349.349,0,0,0,.115.162.258.258,0,0,0,.149.06q.278,0,.525-.422l.128.094a1.167,1.167,0,0,1-1.122.819,1.008,1.008,0,0,1-.644-.209.942.942,0,0,1-.333-.474,4.032,4.032,0,0,1-.043-.785v-2.155h-.52V125.2a5.445,5.445,0,0,0,.913-.8,4.791,4.791,0,0,0,.661-.934Zm3.245,5.611-1.288-2.957a3.725,3.725,0,0,0-.431-.824.72.72,0,0,0-.333-.213v-.158h2.12v.158a.493.493,0,0,0-.294.081.222.222,0,0,0-.085.175,2.061,2.061,0,0,0,.214.64l.683,1.562.465-1.208a3.009,3.009,0,0,0,.252-.9.319.319,0,0,0-.107-.252.577.577,0,0,0-.367-.1v-.158h1.335v.158a.5.5,0,0,0-.32.153,3.693,3.693,0,0,0-.413.883l-1.139,2.957a6.487,6.487,0,0,1-.64,1.365.917.917,0,0,1-.738.358.814.814,0,0,1-.576-.2.636.636,0,0,1-.218-.486.58.58,0,0,1,.15-.41.5.5,0,0,1,.375-.162.445.445,0,0,1,.341.137.6.6,0,0,1,.137.422.432.432,0,0,0,.038.209.115.115,0,0,0,.1.047.317.317,0,0,0,.218-.123,2.657,2.657,0,0,0,.4-.819ZM154.681,123a.662.662,0,1,1-.465.2A.63.63,0,0,1,154.681,123Zm.6,1.933v3.162a.962.962,0,0,0,.1.542.539.539,0,0,0,.384.132v.153h-2.155v-.153a.521.521,0,0,0,.393-.153.955.955,0,0,0,.085-.521v-2.33a.936.936,0,0,0-.1-.537.519.519,0,0,0-.38-.137v-.158Zm2.592,0v.516a2.3,2.3,0,0,1,.589-.482,1.246,1.246,0,0,1,.606-.153.963.963,0,0,1,.644.217,1.027,1.027,0,0,1,.341.534,4.138,4.138,0,0,1,.068.934v1.553a1.228,1.228,0,0,0,.081.576.5.5,0,0,0,.35.141v.153h-2.019v-.153a.421.421,0,0,0,.324-.188,1.226,1.226,0,0,0,.068-.529v-1.775a2.9,2.9,0,0,0-.038-.619.367.367,0,0,0-.132-.2.313.313,0,0,0-.2-.072q-.367,0-.683.525v2.138a1.217,1.217,0,0,0,.081.567.433.433,0,0,0,.311.149v.153h-2.018v-.153a.494.494,0,0,0,.358-.162,1.19,1.19,0,0,0,.073-.554V125.8a1.123,1.123,0,0,0-.085-.564.5.5,0,0,0-.346-.145v-.158Zm10.65-1.8V124.7h-.153a2.441,2.441,0,0,0-.3-.777,1.154,1.154,0,0,0-.457-.38,1.457,1.457,0,0,0-.567-.077h-.431v4.463a1.907,1.907,0,0,0,.047.554.468.468,0,0,0,.192.2.8.8,0,0,0,.392.081h.192v.158H164.4v-.158h.192a.8.8,0,0,0,.405-.09.409.409,0,0,0,.175-.2,1.763,1.763,0,0,0,.047-.537v-4.463H164.8a1.216,1.216,0,0,0-.849.247,1.639,1.639,0,0,0-.47.986h-.162v-1.566Zm1.777,1.677a1.85,1.85,0,0,1,.968.269,1.7,1.7,0,0,1,.678.764,2.492,2.492,0,0,1,.235,1.084,2.292,2.292,0,0,1-.431,1.421,1.7,1.7,0,0,1-1.438.691,1.647,1.647,0,0,1-1.387-.631,2.33,2.33,0,0,1-.486-1.464,2.36,2.36,0,0,1,.495-1.493A1.638,1.638,0,0,1,170.3,124.81Zm.017.3a.5.5,0,0,0-.375.166,1.158,1.158,0,0,0-.2.649q-.047.482-.047,1.344a5.731,5.731,0,0,0,.06.853.826.826,0,0,0,.2.461.476.476,0,0,0,.35.158.484.484,0,0,0,.32-.107.719.719,0,0,0,.222-.405,9.872,9.872,0,0,0,.085-1.639,4.026,4.026,0,0,0-.081-.995.762.762,0,0,0-.239-.4A.445.445,0,0,0,170.315,125.113Zm6.411-.184v3.123a1.162,1.162,0,0,0,.085.572.5.5,0,0,0,.346.141v.153h-1.625v-.533a2.1,2.1,0,0,1-.572.5,1.334,1.334,0,0,1-.64.153.957.957,0,0,1-.6-.2,1.026,1.026,0,0,1-.35-.487,3.554,3.554,0,0,1-.09-.968V125.8a1.115,1.115,0,0,0-.086-.564.5.5,0,0,0-.345-.145v-.158h1.625v2.726a2.37,2.37,0,0,0,.039.551.381.381,0,0,0,.128.187.34.34,0,0,0,.2.064.5.5,0,0,0,.277-.081,1.767,1.767,0,0,0,.41-.448V125.8a1.115,1.115,0,0,0-.086-.564.5.5,0,0,0-.345-.145v-.158Zm2.754,0v.9a2.887,2.887,0,0,1,.7-.819,1.026,1.026,0,0,1,.576-.2.5.5,0,0,1,.38.149.558.558,0,0,1,.145.414.645.645,0,0,1-.141.444.425.425,0,0,1-.333.158.579.579,0,0,1-.393-.145,2.482,2.482,0,0,0-.2-.162.188.188,0,0,0-.1-.026.361.361,0,0,0-.235.094.886.886,0,0,0-.264.414,2.9,2.9,0,0,0-.137.913v.918l0,.239a.969.969,0,0,0,.03.311.352.352,0,0,0,.149.171.945.945,0,0,0,.341.064v.153H177.85v-.153a.467.467,0,0,0,.35-.141,1.31,1.31,0,0,0,.094-.644v-2.206a1.672,1.672,0,0,0-.034-.435.345.345,0,0,0-.124-.175.663.663,0,0,0-.286-.076v-.158ZM182.755,123a.662.662,0,1,1-.465.2A.63.63,0,0,1,182.755,123Zm.6,1.933v3.162a.968.968,0,0,0,.1.542.54.54,0,0,0,.385.132v.153H181.68v-.153a.52.52,0,0,0,.393-.153.955.955,0,0,0,.085-.521v-2.33a.942.942,0,0,0-.1-.537.521.521,0,0,0-.38-.137v-.158Zm3.483-.111.064,1.361h-.145a2.122,2.122,0,0,0-.542-.828.888.888,0,0,0-.555-.222.415.415,0,0,0-.3.12.355.355,0,0,0-.123.269.352.352,0,0,0,.085.222,4.14,4.14,0,0,0,.764.6,3.041,3.041,0,0,1,.824.721,1.147,1.147,0,0,1,.2.661,1.4,1.4,0,0,1-.166.653,1.168,1.168,0,0,1-.47.491,1.34,1.34,0,0,1-.67.17,2.322,2.322,0,0,1-.764-.179.642.642,0,0,0-.175-.047q-.141,0-.235.214h-.14l-.068-1.434h.145a1.872,1.872,0,0,0,.525.845,1.022,1.022,0,0,0,.636.281.46.46,0,0,0,.333-.123.414.414,0,0,0,.132-.307.524.524,0,0,0-.128-.354,3.3,3.3,0,0,0-.571-.452,4.483,4.483,0,0,1-.845-.691,1.2,1.2,0,0,1-.282-.772,1.254,1.254,0,0,1,.316-.832,1.145,1.145,0,0,1,.922-.375,1.34,1.34,0,0,1,.627.158.417.417,0,0,0,.188.064.223.223,0,0,0,.123-.03.854.854,0,0,0,.15-.183Zm2.627.111v.525a2.253,2.253,0,0,1,.606-.5,1.317,1.317,0,0,1,.614-.145,1.109,1.109,0,0,1,.644.179,1.128,1.128,0,0,1,.4.546,2.561,2.561,0,0,1,.653-.555,1.364,1.364,0,0,1,.657-.17,1.033,1.033,0,0,1,.657.192.961.961,0,0,1,.341.482,3.163,3.163,0,0,1,.1.93v1.635a1.2,1.2,0,0,0,.081.571.516.516,0,0,0,.35.145v.153H192.5v-.153a.457.457,0,0,0,.358-.188,1.128,1.128,0,0,0,.077-.529v-1.716a3.189,3.189,0,0,0-.043-.678.387.387,0,0,0-.137-.214.33.33,0,0,0-.214-.073.632.632,0,0,0-.371.137,1.686,1.686,0,0,0-.38.4v2.142a1.225,1.225,0,0,0,.073.542.443.443,0,0,0,.376.175v.153h-2.066v-.153a.457.457,0,0,0,.261-.081.351.351,0,0,0,.128-.179,1.868,1.868,0,0,0,.034-.457v-1.716a3.109,3.109,0,0,0-.043-.678.411.411,0,0,0-.145-.214.338.338,0,0,0-.214-.076.566.566,0,0,0-.311.09,1.732,1.732,0,0,0-.427.452v2.142a1.257,1.257,0,0,0,.081.559.444.444,0,0,0,.35.158v.153h-2.057v-.153a.5.5,0,0,0,.359-.162,1.2,1.2,0,0,0,.072-.554V125.8a1.123,1.123,0,0,0-.085-.564.5.5,0,0,0-.346-.145v-.158Z" transform="translate(-63.172 -55.82)" fill="#fff"/>
  <path id="Path_22" data-name="Path 22" d="M141.12,117.6h56.015" transform="translate(-73.668 -53.679)" fill="#fff" stroke="#fff" stroke-width="1"/>
  <g id="Group_21" data-name="Group 21" transform="translate(0.472 0)">
    <g id="Group_20" data-name="Group 20" transform="translate(0 0)">
      <path id="Path_23" data-name="Path 23" d="M12.867,10.843,16.157.06l-.424,11.792L5.538,28.3l5.277-11.825L0,10.256Z" transform="translate(0 -0.027)" fill="#e40613"/>
      <path id="Path_24" data-name="Path 24" d="M32.9,10.782,29.582,0l.652,11.858,10,16.353L35.022,16.385l10.75-6.124Z" transform="translate(-13.425)" fill="#163d8a"/>
      <path id="Path_25" data-name="Path 25" d="M20.761,12.667,10.142,28.3l10.2-16.451L20.761.06l.652,11.792,10,16.385Z" transform="translate(-4.603 -0.027)" fill="#fff"/>
      <path id="Path_26" data-name="Path 26" d="M20.761,23.2,10.142,38.8l10.62-11.988L31.413,38.74Z" transform="translate(-4.603 -10.529)" fill="#05893e"/>
      <path id="Path_27" data-name="Path 27" d="M20.761,29.881,10.142,41.837l10.62-10.522L31.413,41.771Z" transform="translate(-4.603 -13.561)" fill="#fbcb09"/>
      <path id="Path_28" data-name="Path 28" d="M20.761,32.506,10.142,43.028l10.62-7.069,10.652,7Z" transform="translate(-4.603 -14.752)"/>
    </g>
    <g id="Group_19" data-name="Group 19" transform="translate(52.598 0)">
      <path id="Path_29" data-name="Path 29" d="M123.746,10.843,127.036.06l-.423,11.792L116.417,28.3l5.277-11.825-10.815-6.222Z" transform="translate(-110.879 -0.027)" fill="#e40613"/>
      <path id="Path_30" data-name="Path 30" d="M143.784,10.782,140.461,0l.652,11.858,10,16.353L145.9,16.385l10.75-6.124Z" transform="translate(-124.304)" fill="#163d8a"/>
      <path id="Path_31" data-name="Path 31" d="M131.64,12.667,121.021,28.3l10.2-16.451L131.64.06l.652,11.792,10,16.385Z" transform="translate(-115.482 -0.027)" fill="#fff"/>
      <path id="Path_32" data-name="Path 32" d="M131.64,23.2,121.021,38.8,131.64,26.817,142.293,38.74Z" transform="translate(-115.482 -10.529)" fill="#05893e"/>
      <path id="Path_33" data-name="Path 33" d="M131.64,29.881,121.021,41.837,131.64,31.315l10.653,10.457Z" transform="translate(-115.482 -13.561)" fill="#fbcb09"/>
      <path id="Path_34" data-name="Path 34" d="M131.64,32.506,121.021,43.028l10.619-7.069,10.653,7Z" transform="translate(-115.482 -14.752)"/>
    </g>
    <g id="Group_18" data-name="Group 18" transform="translate(105.197 0)">
      <path id="Path_35" data-name="Path 35" d="M234.627,10.843,237.917.06l-.424,11.792L227.3,28.3l5.277-11.825L221.76,10.256Z" transform="translate(-221.76 -0.027)" fill="#e40613"/>
      <path id="Path_36" data-name="Path 36" d="M254.664,10.782,251.342,0l.652,11.858,10,16.353-5.212-11.825,10.75-6.124Z" transform="translate(-235.185)" fill="#163d8a"/>
      <path id="Path_37" data-name="Path 37" d="M242.521,12.667,231.9,28.3l10.2-16.451L242.521.06l.652,11.792,10,16.385Z" transform="translate(-226.362 -0.027)" fill="#fff"/>
      <path id="Path_38" data-name="Path 38" d="M242.521,23.2,231.9,38.8l10.62-11.988L253.173,38.74Z" transform="translate(-226.362 -10.529)" fill="#05893e"/>
      <path id="Path_39" data-name="Path 39" d="M242.521,29.881,231.9,41.837l10.62-10.522,10.652,10.457Z" transform="translate(-226.362 -13.561)" fill="#fbcb09"/>
      <path id="Path_40" data-name="Path 40" d="M242.521,32.506,231.9,43.028l10.62-7.069,10.652,7Z" transform="translate(-226.362 -14.752)"/>
    </g>
    <g id="Group_17" data-name="Group 17" transform="translate(157.796 0)">
      <path id="Path_41" data-name="Path 41" d="M345.507,10.843,348.8.06l-.424,11.792L338.178,28.3l5.277-11.825L332.64,10.256Z" transform="translate(-332.64 -0.027)" fill="#e40613"/>
      <path id="Path_42" data-name="Path 42" d="M365.544,10.782,362.222,0l.652,11.858,10,16.353-5.212-11.825,10.75-6.124Z" transform="translate(-346.065)" fill="#163d8a"/>
      <path id="Path_43" data-name="Path 43" d="M353.4,12.667,342.781,28.3l10.2-16.451L353.4.06l.652,11.792,10,16.385Z" transform="translate(-337.242 -0.027)" fill="#fff"/>
      <path id="Path_44" data-name="Path 44" d="M353.4,23.2l-10.62,15.6L353.4,26.817,364.053,38.74Z" transform="translate(-337.242 -10.529)" fill="#05893e"/>
      <path id="Path_45" data-name="Path 45" d="M353.4,29.881l-10.62,11.955L353.4,31.315l10.652,10.457Z" transform="translate(-337.242 -13.561)" fill="#fbcb09"/>
      <path id="Path_46" data-name="Path 46" d="M353.4,32.506l-10.62,10.522,10.62-7.069,10.652,7Z" transform="translate(-337.242 -14.752)"/>
    </g>
  </g>
</svg>
