<svg xmlns="http://www.w3.org/2000/svg" width="139.193" height="54.833" viewBox="0 0 139.193 54.833">
  <g id="TGC" transform="translate(0 0.076)">
    <path id="Path_19" data-name="Path 19" d="M5.975,68.611l.07,1.486H5.868a1.8,1.8,0,0,0-.14-.561.92.92,0,0,0-.388-.4,1.311,1.311,0,0,0-.631-.131H3.816v4.842a1.3,1.3,0,0,0,.126.729.7.7,0,0,0,.547.2h.22v.173H2.021v-.173h.224a.644.644,0,0,0,.57-.243,1.418,1.418,0,0,0,.1-.682V69.008H2.157a2.125,2.125,0,0,0-.631.065.866.866,0,0,0-.416.341A1.381,1.381,0,0,0,.9,70.1H.727L.8,68.611Zm3.876-.145a2.864,2.864,0,0,1,2.136.939,3.223,3.223,0,0,1,.907,2.337,3.332,3.332,0,0,1-.911,2.4,2.94,2.94,0,0,1-2.206.953,2.931,2.931,0,0,1-2.2-.93,3.342,3.342,0,0,1-.888-2.407,3.207,3.207,0,0,1,1.028-2.463A3.033,3.033,0,0,1,9.851,68.466Zm-.089.341a1.672,1.672,0,0,0-1.365.631,3.567,3.567,0,0,0-.64,2.3,3.764,3.764,0,0,0,.664,2.388,1.64,1.64,0,0,0,1.346.636,1.833,1.833,0,0,0,1.472-.7,3.386,3.386,0,0,0,.584-2.2,3.837,3.837,0,0,0-.64-2.426A1.727,1.727,0,0,0,9.762,68.808Zm8.311-.023v-.173h2.243v.173h-.238a.644.644,0,0,0-.575.313,1.43,1.43,0,0,0-.1.673v2.571a4.513,4.513,0,0,1-.192,1.482,1.853,1.853,0,0,1-.743.9,2.649,2.649,0,0,1-1.5.374,2.838,2.838,0,0,1-1.575-.36,1.949,1.949,0,0,1-.762-.967,5.37,5.37,0,0,1-.15-1.561V69.733a1.227,1.227,0,0,0-.164-.766.656.656,0,0,0-.519-.182h-.238v-.173H16.3v.173h-.243a.628.628,0,0,0-.561.248,1.383,1.383,0,0,0-.117.7V72.5a6.3,6.3,0,0,0,.065.846,1.822,1.822,0,0,0,.248.743,1.338,1.338,0,0,0,.509.439,1.784,1.784,0,0,0,.823.173,2.262,2.262,0,0,0,1.112-.271,1.442,1.442,0,0,0,.668-.692,3.994,3.994,0,0,0,.182-1.435V69.733a1.308,1.308,0,0,0-.131-.743.687.687,0,0,0-.542-.206Zm9.059,6.165H25.44l-2.145-2.963q-.238.009-.388.009h-.131l-.145-.009v1.841a1.294,1.294,0,0,0,.131.743.666.666,0,0,0,.533.206h.248v.173H20.827v-.173h.238a.637.637,0,0,0,.575-.262,1.476,1.476,0,0,0,.1-.687V69.733a1.294,1.294,0,0,0-.131-.743.687.687,0,0,0-.542-.206h-.238v-.173h2.309a5.382,5.382,0,0,1,1.486.15,1.667,1.667,0,0,1,.813.542,1.4,1.4,0,0,1,.337.939,1.475,1.475,0,0,1-.383,1.014,2.138,2.138,0,0,1-1.178.608l1.309,1.818a3.254,3.254,0,0,0,.771.832,1.943,1.943,0,0,0,.841.262Zm-4.5-3.258q.089,0,.154,0h.107a2.05,2.05,0,0,0,1.365-.393,1.254,1.254,0,0,0,.463-1,1.293,1.293,0,0,0-.374-.963,1.317,1.317,0,0,0-.981-.374,4.125,4.125,0,0,0-.734.089Zm7.61,3.085v.173H27.525v-.173h.224a.677.677,0,0,0,.57-.229,1.423,1.423,0,0,0,.112-.72V69.733a2.1,2.1,0,0,0-.061-.636.421.421,0,0,0-.192-.2.886.886,0,0,0-.43-.112h-.224v-.173h2.715v.173h-.229a.671.671,0,0,0-.566.229,1.374,1.374,0,0,0-.117.72v4.094a2.1,2.1,0,0,0,.061.636.419.419,0,0,0,.2.2.86.86,0,0,0,.425.112Zm4.862-6.31v2.192H34.93a2.7,2.7,0,0,0-.3-1,1.552,1.552,0,0,0-.617-.594,1.713,1.713,0,0,0-.832-.22,1.126,1.126,0,0,0-.8.3.9.9,0,0,0-.318.673.8.8,0,0,0,.2.528,5.168,5.168,0,0,0,1.379.935,9.106,9.106,0,0,1,1.21.734,1.727,1.727,0,0,1,.5.6,1.565,1.565,0,0,1,.178.724,1.645,1.645,0,0,1-.561,1.243,2.02,2.02,0,0,1-1.435.519,3.042,3.042,0,0,1-.519-.042,5.543,5.543,0,0,1-.6-.168,2.628,2.628,0,0,0-.575-.15.253.253,0,0,0-.187.07.576.576,0,0,0-.1.29h-.173V72.92h.173a3.1,3.1,0,0,0,.327,1.024,1.582,1.582,0,0,0,.626.561,1.963,1.963,0,0,0,.93.224,1.311,1.311,0,0,0,.921-.308.953.953,0,0,0,.341-.729.975.975,0,0,0-.131-.472,1.378,1.378,0,0,0-.4-.444,11.263,11.263,0,0,0-1-.594,10.017,10.017,0,0,1-1.159-.729,1.971,1.971,0,0,1-.519-.6,1.484,1.484,0,0,1-.178-.72,1.553,1.553,0,0,1,.523-1.173,1.86,1.86,0,0,1,1.332-.5,2.672,2.672,0,0,1,1.07.248,1.1,1.1,0,0,0,.369.117.275.275,0,0,0,.2-.07.58.58,0,0,0,.126-.294Zm5.1,6.483-2.449-5.333v4.234a1.3,1.3,0,0,0,.126.729.693.693,0,0,0,.547.2h.224v.173H36.44v-.173h.224a.644.644,0,0,0,.57-.243,1.419,1.419,0,0,0,.1-.682V69.71a1.449,1.449,0,0,0-.093-.608A.506.506,0,0,0,37,68.878a1.246,1.246,0,0,0-.561-.094v-.173h1.795l2.3,4.959L42.8,68.611h1.795v.173h-.219a.649.649,0,0,0-.575.243,1.417,1.417,0,0,0-.1.682v4.141a1.26,1.26,0,0,0,.131.729.694.694,0,0,0,.547.2h.219v.173H41.9v-.173h.225a.637.637,0,0,0,.57-.243,1.424,1.424,0,0,0,.1-.682V69.616l-2.444,5.333Zm13.345-6.483.164,2h-.164a2.736,2.736,0,0,0-.64-1.126,2,2,0,0,0-1.454-.547,2.067,2.067,0,0,0-1.841.958,3.441,3.441,0,0,0-.528,1.926,3.849,3.849,0,0,0,.351,1.655,2.483,2.483,0,0,0,.916,1.1,2.227,2.227,0,0,0,1.169.346,2.576,2.576,0,0,0,.678-.089,2.7,2.7,0,0,0,.631-.262V72.593a1.623,1.623,0,0,0-.075-.622.461.461,0,0,0-.224-.224,1.246,1.246,0,0,0-.533-.079V71.49h2.454v.178h-.117a.522.522,0,0,0-.5.243,1.644,1.644,0,0,0-.093.682v1.94a4.748,4.748,0,0,1-1.061.425,4.646,4.646,0,0,1-1.164.136,3.379,3.379,0,0,1-2.79-1.178,3.144,3.144,0,0,1-.715-2.038,3.573,3.573,0,0,1,1.711-3.005,3.53,3.53,0,0,1,2.271-.351,5.689,5.689,0,0,1,.8.248,1.289,1.289,0,0,0,.351.1.183.183,0,0,0,.15-.079.624.624,0,0,0,.079-.322Zm7.75,6.483H59.6l-2.145-2.963q-.238.009-.388.009h-.131l-.145-.009v1.841a1.3,1.3,0,0,0,.131.743.666.666,0,0,0,.533.206H57.7v.173H54.989v-.173h.238a.637.637,0,0,0,.575-.262,1.476,1.476,0,0,0,.1-.687V69.733a1.293,1.293,0,0,0-.131-.743.687.687,0,0,0-.542-.206h-.238v-.173H57.3a5.385,5.385,0,0,1,1.486.15,1.669,1.669,0,0,1,.813.542,1.4,1.4,0,0,1,.336.939,1.474,1.474,0,0,1-.383,1.014,2.137,2.137,0,0,1-1.178.608l1.309,1.818a3.254,3.254,0,0,0,.771.832,1.942,1.942,0,0,0,.841.262Zm-4.5-3.258q.089,0,.154,0h.108a2.049,2.049,0,0,0,1.364-.393,1.254,1.254,0,0,0,.463-1,1.294,1.294,0,0,0-.374-.963,1.317,1.317,0,0,0-.982-.374,4.129,4.129,0,0,0-.734.089Zm9.036,1.136H63.375l-.43,1a1.582,1.582,0,0,0-.159.552.328.328,0,0,0,.136.257,1.246,1.246,0,0,0,.6.14v.173h-2v-.173a1.075,1.075,0,0,0,.514-.182,2.856,2.856,0,0,0,.528-.911L64.8,68.466h.164l2.206,5.272a2.461,2.461,0,0,0,.481.827,1,1,0,0,0,.607.21v.173h-2.5v-.173a.924.924,0,0,0,.509-.126.324.324,0,0,0,.136-.262,1.943,1.943,0,0,0-.187-.65Zm-.131-.346L64.623,69.92l-1.1,2.561Zm3.071,2.468v-.173h.238a.63.63,0,0,0,.57-.257,1.464,1.464,0,0,0,.1-.692V69.733a1.311,1.311,0,0,0-.131-.743.687.687,0,0,0-.542-.206h-.238v-.173h2.58a5.615,5.615,0,0,1,2.159.322A2.558,2.558,0,0,1,74.7,70.009a3.306,3.306,0,0,1,.453,1.739,3.172,3.172,0,0,1-.8,2.211,3.537,3.537,0,0,1-2.748.991Zm1.809-.458a4.775,4.775,0,0,0,1,.131,2.363,2.363,0,0,0,1.8-.762,3.348,3.348,0,0,0,0-4.136,2.414,2.414,0,0,0-1.837-.757,3.966,3.966,0,0,0-.958.136Zm8.138.285v.173H76v-.173h.224a.677.677,0,0,0,.57-.229,1.426,1.426,0,0,0,.112-.72V69.733a2.108,2.108,0,0,0-.061-.636.42.42,0,0,0-.192-.2.885.885,0,0,0-.43-.112H76v-.173h2.715v.173h-.229a.671.671,0,0,0-.566.229,1.375,1.375,0,0,0-.117.72v4.094a2.108,2.108,0,0,0,.061.636.421.421,0,0,0,.2.2.859.859,0,0,0,.425.112Zm.347-6.165h1.72l3.875,4.753V69.71a1.257,1.257,0,0,0-.131-.729.693.693,0,0,0-.547-.2h-.22v-.173h2.206v.173h-.224a.644.644,0,0,0-.57.243,1.418,1.418,0,0,0-.1.682v5.342H84.9l-4.179-5.1v3.9a1.3,1.3,0,0,0,.126.729.7.7,0,0,0,.547.2h.224v.173H79.413v-.173h.22a.649.649,0,0,0,.575-.243,1.417,1.417,0,0,0,.1-.682V69.443a2.8,2.8,0,0,0-.421-.425,1.328,1.328,0,0,0-.827-.234Zm13.158-.145.164,2H92.22a2.736,2.736,0,0,0-.64-1.126,2,2,0,0,0-1.454-.547,2.067,2.067,0,0,0-1.841.958,3.442,3.442,0,0,0-.528,1.926,3.849,3.849,0,0,0,.351,1.655,2.484,2.484,0,0,0,.916,1.1,2.227,2.227,0,0,0,1.169.346,2.577,2.577,0,0,0,.678-.089,2.706,2.706,0,0,0,.631-.262V72.593a1.623,1.623,0,0,0-.075-.622.461.461,0,0,0-.224-.224,1.246,1.246,0,0,0-.533-.079V71.49h2.454v.178h-.117a.522.522,0,0,0-.5.243,1.644,1.644,0,0,0-.093.682v1.94a4.755,4.755,0,0,1-1.061.425,4.646,4.646,0,0,1-1.164.136,3.378,3.378,0,0,1-2.79-1.178,3.144,3.144,0,0,1-.715-2.038,3.573,3.573,0,0,1,1.711-3.005,3.53,3.53,0,0,1,2.271-.351,5.688,5.688,0,0,1,.8.248,1.289,1.289,0,0,0,.351.1.183.183,0,0,0,.15-.079.623.623,0,0,0,.079-.322Zm9.677,0,.145,2.155H101.9a2.712,2.712,0,0,0-.827-1.393,2.016,2.016,0,0,0-1.29-.425,2.088,2.088,0,0,0-1.14.322,2.117,2.117,0,0,0-.8,1.019,4.584,4.584,0,0,0-.29,1.743,3.7,3.7,0,0,0,.276,1.491,2.072,2.072,0,0,0,.827.967,2.4,2.4,0,0,0,1.267.337A2.21,2.21,0,0,0,101,74.421a3.623,3.623,0,0,0,1.037-1.052l.145.093a3.326,3.326,0,0,1-1.113,1.239,2.814,2.814,0,0,1-1.51.393,2.858,2.858,0,0,1-2.44-1.168,3.341,3.341,0,0,1-.645-2.047,3.635,3.635,0,0,1,.425-1.743,3.067,3.067,0,0,1,1.169-1.229,3.162,3.162,0,0,1,1.631-.439,2.985,2.985,0,0,1,1.355.337.737.737,0,0,0,.28.1.308.308,0,0,0,.22-.089.729.729,0,0,0,.173-.351Zm4.362,0a2.863,2.863,0,0,1,2.136.939,3.222,3.222,0,0,1,.907,2.337,3.332,3.332,0,0,1-.911,2.4,3.049,3.049,0,0,1-4.407.023,3.343,3.343,0,0,1-.888-2.407,3.208,3.208,0,0,1,1.028-2.463A3.035,3.035,0,0,1,106.259,68.466Zm-.089.341a1.673,1.673,0,0,0-1.365.631,3.568,3.568,0,0,0-.64,2.3,3.765,3.765,0,0,0,.664,2.388,1.64,1.64,0,0,0,1.346.636,1.832,1.832,0,0,0,1.472-.7,3.385,3.385,0,0,0,.584-2.2,3.837,3.837,0,0,0-.64-2.426A1.727,1.727,0,0,0,106.17,68.808Zm8.311-.023v-.173h2.243v.173h-.239a.644.644,0,0,0-.575.313,1.431,1.431,0,0,0-.1.673v2.571a4.517,4.517,0,0,1-.191,1.482,1.856,1.856,0,0,1-.743.9,2.65,2.65,0,0,1-1.505.374,2.838,2.838,0,0,1-1.575-.36,1.95,1.95,0,0,1-.762-.967,5.371,5.371,0,0,1-.15-1.561V69.733a1.228,1.228,0,0,0-.164-.766.656.656,0,0,0-.519-.182h-.239v-.173H112.7v.173h-.243a.628.628,0,0,0-.561.248,1.38,1.38,0,0,0-.117.7V72.5a6.26,6.26,0,0,0,.065.846,1.82,1.82,0,0,0,.248.743,1.341,1.341,0,0,0,.509.439,1.785,1.785,0,0,0,.823.173,2.262,2.262,0,0,0,1.112-.271,1.443,1.443,0,0,0,.668-.692,4,4,0,0,0,.182-1.435V69.733a1.311,1.311,0,0,0-.131-.743.687.687,0,0,0-.542-.206Zm2.464-.173h1.72l3.875,4.753V69.71a1.257,1.257,0,0,0-.131-.729.693.693,0,0,0-.547-.2h-.22v-.173h2.206v.173h-.224a.644.644,0,0,0-.57.243,1.417,1.417,0,0,0-.1.682v5.342h-.168l-4.178-5.1v3.9a1.3,1.3,0,0,0,.126.729.7.7,0,0,0,.547.2h.225v.173H117.3v-.173h.219a.65.65,0,0,0,.575-.243,1.417,1.417,0,0,0,.1-.682V69.443a2.8,2.8,0,0,0-.421-.425,1.328,1.328,0,0,0-.827-.234Zm13.045-.145.145,2.155h-.145a2.712,2.712,0,0,0-.827-1.393,2.016,2.016,0,0,0-1.29-.425,2.088,2.088,0,0,0-1.14.322,2.117,2.117,0,0,0-.8,1.019,4.584,4.584,0,0,0-.29,1.743,3.7,3.7,0,0,0,.276,1.491,2.071,2.071,0,0,0,.828.967,2.4,2.4,0,0,0,1.266.337,2.209,2.209,0,0,0,1.089-.262,3.622,3.622,0,0,0,1.037-1.052l.145.093a3.329,3.329,0,0,1-1.112,1.239,2.817,2.817,0,0,1-1.51.393,2.858,2.858,0,0,1-2.44-1.168,3.341,3.341,0,0,1-.645-2.047A3.635,3.635,0,0,1,125,70.135a3.067,3.067,0,0,1,1.169-1.229,3.163,3.163,0,0,1,1.631-.439,2.985,2.985,0,0,1,1.355.337.736.736,0,0,0,.281.1.308.308,0,0,0,.219-.089.729.729,0,0,0,.173-.351Zm3.815,6.31v.173H131.09v-.173h.225a.676.676,0,0,0,.57-.229,1.42,1.42,0,0,0,.112-.72V69.733a2.091,2.091,0,0,0-.061-.636.421.421,0,0,0-.191-.2.886.886,0,0,0-.43-.112h-.225v-.173h2.716v.173h-.229a.671.671,0,0,0-.566.229,1.371,1.371,0,0,0-.117.72v4.094a2.107,2.107,0,0,0,.061.636.418.418,0,0,0,.2.2.861.861,0,0,0,.426.112Zm5.96-1.58.154.033-.542,1.72H134.47v-.173h.239a.637.637,0,0,0,.575-.262,1.51,1.51,0,0,0,.1-.692v-4.09a1.307,1.307,0,0,0-.131-.743.686.686,0,0,0-.542-.206h-.239v-.173h2.87v.173a1.771,1.771,0,0,0-.711.094.571.571,0,0,0-.276.248,2.037,2.037,0,0,0-.075.715v3.982a1.294,1.294,0,0,0,.075.533.333.333,0,0,0,.173.145,3.033,3.033,0,0,0,.729.047h.463a3.351,3.351,0,0,0,1.023-.107,1.342,1.342,0,0,0,.538-.379A3.177,3.177,0,0,0,139.766,73.2Z" transform="translate(-0.727 -41.16)" fill="#fff"/>
    <path id="Path_20" data-name="Path 20" d="M127.779,97.6a1.671,1.671,0,0,1,1.246.548,1.88,1.88,0,0,1,.529,1.363,1.943,1.943,0,0,1-.532,1.4,1.779,1.779,0,0,1-2.571.014,1.951,1.951,0,0,1-.518-1.4,1.87,1.87,0,0,1,.6-1.437A1.769,1.769,0,0,1,127.779,97.6Zm-.052.2a.975.975,0,0,0-.8.368,2.079,2.079,0,0,0-.374,1.341,2.2,2.2,0,0,0,.387,1.393.956.956,0,0,0,.785.371,1.069,1.069,0,0,0,.859-.406,1.977,1.977,0,0,0,.341-1.281,2.238,2.238,0,0,0-.373-1.415A1.008,1.008,0,0,0,127.727,97.8Zm3.327.087v1.453h.673a.478.478,0,0,0,.338-.1.677.677,0,0,0,.144-.406h.1v1.252h-.1a.713.713,0,0,0-.057-.316.339.339,0,0,0-.147-.15.59.59,0,0,0-.278-.052h-.673v1.161a1.216,1.216,0,0,0,.035.371.243.243,0,0,0,.115.117.518.518,0,0,0,.251.065h.134v.1H130v-.1h.131a.4.4,0,0,0,.333-.134.828.828,0,0,0,.065-.42V98.337a1.232,1.232,0,0,0-.035-.371.246.246,0,0,0-.112-.117.506.506,0,0,0-.251-.065H130v-.1h2.751l.035.813h-.1a1.075,1.075,0,0,0-.166-.379.527.527,0,0,0-.232-.177,1.225,1.225,0,0,0-.425-.055Zm6.2-.286v1.279h-.1a1.574,1.574,0,0,0-.177-.586.9.9,0,0,0-.36-.346,1,1,0,0,0-.485-.128.657.657,0,0,0-.469.174.523.523,0,0,0-.185.393.467.467,0,0,0,.117.308,3.019,3.019,0,0,0,.8.545,5.362,5.362,0,0,1,.706.428,1.008,1.008,0,0,1,.292.349.915.915,0,0,1,.1.423.959.959,0,0,1-.327.725,1.177,1.177,0,0,1-.837.3,1.773,1.773,0,0,1-.3-.025,3.1,3.1,0,0,1-.352-.1,1.544,1.544,0,0,0-.335-.087.147.147,0,0,0-.109.041.337.337,0,0,0-.057.169h-.1V100.2h.1a1.805,1.805,0,0,0,.191.6.924.924,0,0,0,.365.327,1.149,1.149,0,0,0,.542.131.766.766,0,0,0,.537-.18.556.556,0,0,0,.2-.426.569.569,0,0,0-.076-.275.8.8,0,0,0-.232-.259,6.7,6.7,0,0,0-.581-.346,5.827,5.827,0,0,1-.676-.425,1.158,1.158,0,0,1-.3-.349.867.867,0,0,1-.1-.42.906.906,0,0,1,.305-.684,1.085,1.085,0,0,1,.777-.289,1.56,1.56,0,0,1,.625.145.641.641,0,0,0,.215.068.161.161,0,0,0,.114-.041.337.337,0,0,0,.074-.172Zm2.73,0a1.671,1.671,0,0,1,1.246.548,1.88,1.88,0,0,1,.529,1.363,1.942,1.942,0,0,1-.532,1.4,1.778,1.778,0,0,1-2.571.014,1.95,1.95,0,0,1-.518-1.4,1.87,1.87,0,0,1,.6-1.437A1.769,1.769,0,0,1,139.984,97.6Zm-.052.2a.975.975,0,0,0-.8.368,2.079,2.079,0,0,0-.374,1.341,2.2,2.2,0,0,0,.387,1.393.957.957,0,0,0,.785.371,1.069,1.069,0,0,0,.859-.406,1.974,1.974,0,0,0,.341-1.281,2.239,2.239,0,0,0-.373-1.415A1.007,1.007,0,0,0,139.932,97.8Zm4.848-.014v-.1h1.309v.1h-.139a.376.376,0,0,0-.336.183.84.84,0,0,0-.057.393v1.5a2.631,2.631,0,0,1-.112.864,1.081,1.081,0,0,1-.433.526,1.545,1.545,0,0,1-.878.218,1.654,1.654,0,0,1-.919-.21,1.136,1.136,0,0,1-.445-.564,3.147,3.147,0,0,1-.087-.911V98.337a.714.714,0,0,0-.1-.447.382.382,0,0,0-.3-.106h-.139v-.1h1.6v.1H143.6a.367.367,0,0,0-.327.145.807.807,0,0,0-.068.409v1.611a3.662,3.662,0,0,0,.038.494,1.059,1.059,0,0,0,.144.433.783.783,0,0,0,.3.256,1.039,1.039,0,0,0,.48.1,1.317,1.317,0,0,0,.649-.158.84.84,0,0,0,.39-.4,2.33,2.33,0,0,0,.106-.837v-1.5a.762.762,0,0,0-.076-.433.4.4,0,0,0-.316-.12Zm4.742-.1.041.867h-.1a1.042,1.042,0,0,0-.082-.327.536.536,0,0,0-.226-.232.765.765,0,0,0-.368-.076h-.521v2.825a.756.756,0,0,0,.074.425.41.41,0,0,0,.319.114h.128v.1h-1.568v-.1h.131a.375.375,0,0,0,.333-.142.824.824,0,0,0,.06-.4V97.915h-.444a1.238,1.238,0,0,0-.368.038.506.506,0,0,0-.243.2.8.8,0,0,0-.12.4h-.1l.043-.867Zm1.47,1.715h1.718V98.34a1.24,1.24,0,0,0-.035-.374.243.243,0,0,0-.114-.117.5.5,0,0,0-.248-.065h-.131v-.1h1.581v.1h-.131a.518.518,0,0,0-.248.063.233.233,0,0,0-.12.134,1.359,1.359,0,0,0-.03.36v2.385a1.23,1.23,0,0,0,.035.371.246.246,0,0,0,.112.117.518.518,0,0,0,.251.065h.131v.1h-1.581v-.1h.131a.392.392,0,0,0,.33-.134.8.8,0,0,0,.068-.42V99.6h-1.718v1.126a1.226,1.226,0,0,0,.035.371.246.246,0,0,0,.114.117.5.5,0,0,0,.249.065h.133v.1H149.94v-.1h.131a.4.4,0,0,0,.333-.134.832.832,0,0,0,.065-.42V98.34a1.242,1.242,0,0,0-.035-.374.245.245,0,0,0-.112-.117.518.518,0,0,0-.251-.065h-.131v-.1h1.584v.1h-.133a.52.52,0,0,0-.249.063.237.237,0,0,0-.117.134,1.256,1.256,0,0,0-.033.36Zm6.806.745h-1.431l-.251.583a.923.923,0,0,0-.093.322.192.192,0,0,0,.079.15.725.725,0,0,0,.349.082v.1h-1.164v-.1a.628.628,0,0,0,.3-.106,1.675,1.675,0,0,0,.308-.532l1.3-3.043h.1l1.287,3.076a1.444,1.444,0,0,0,.281.483.587.587,0,0,0,.355.122v.1h-1.459v-.1a.541.541,0,0,0,.3-.073.189.189,0,0,0,.079-.153,1.125,1.125,0,0,0-.109-.379Zm-.077-.2-.627-1.494-.643,1.494Zm2.839-2.056v1.453h.673a.478.478,0,0,0,.338-.1.677.677,0,0,0,.144-.406h.1v1.252h-.1a.712.712,0,0,0-.057-.316.338.338,0,0,0-.147-.15.59.59,0,0,0-.278-.052h-.673v1.161a1.212,1.212,0,0,0,.036.371.242.242,0,0,0,.114.117.518.518,0,0,0,.251.065h.134v.1h-1.587v-.1h.131a.4.4,0,0,0,.333-.134.827.827,0,0,0,.065-.42V98.337a1.213,1.213,0,0,0-.036-.371.245.245,0,0,0-.112-.117.507.507,0,0,0-.251-.065h-.131v-.1h2.751l.035.813h-.1a1.075,1.075,0,0,0-.166-.379.527.527,0,0,0-.232-.177,1.225,1.225,0,0,0-.425-.055Zm5.879,3.5h-.987L164.2,99.652c-.093,0-.168.006-.226.006H163.9l-.085-.006v1.074a.752.752,0,0,0,.077.434.387.387,0,0,0,.311.12h.145v.1h-1.584v-.1h.139a.371.371,0,0,0,.335-.153.858.858,0,0,0,.057-.4V98.337a.753.753,0,0,0-.077-.433.4.4,0,0,0-.316-.12h-.139v-.1h1.347a3.141,3.141,0,0,1,.867.087.974.974,0,0,1,.474.316.814.814,0,0,1,.2.548.862.862,0,0,1-.223.592,1.249,1.249,0,0,1-.687.354l.763,1.061a1.9,1.9,0,0,0,.45.485,1.133,1.133,0,0,0,.491.153Zm-2.626-1.9c.035,0,.065,0,.09,0h.063a1.2,1.2,0,0,0,.8-.229.73.73,0,0,0,.27-.583.754.754,0,0,0-.218-.562.768.768,0,0,0-.572-.218,2.41,2.41,0,0,0-.428.052Zm4.439,1.8v.1h-1.584v-.1h.131a.4.4,0,0,0,.333-.134.828.828,0,0,0,.065-.42V98.337a1.211,1.211,0,0,0-.036-.371.245.245,0,0,0-.112-.117.517.517,0,0,0-.251-.065h-.131v-.1h1.584v.1h-.134a.391.391,0,0,0-.33.134.8.8,0,0,0-.068.42v2.388a1.215,1.215,0,0,0,.035.371.243.243,0,0,0,.115.117.5.5,0,0,0,.248.065Zm3.637-3.681.085,1.257h-.085a1.58,1.58,0,0,0-.483-.812,1.175,1.175,0,0,0-.752-.248,1.216,1.216,0,0,0-.665.188,1.233,1.233,0,0,0-.469.594,2.667,2.667,0,0,0-.169,1.017,2.156,2.156,0,0,0,.161.869,1.21,1.21,0,0,0,.483.564,1.4,1.4,0,0,0,.739.2,1.291,1.291,0,0,0,.635-.152,2.117,2.117,0,0,0,.605-.613l.085.054a1.942,1.942,0,0,1-.649.723,1.642,1.642,0,0,1-.881.229,1.667,1.667,0,0,1-1.423-.682,1.949,1.949,0,0,1-.376-1.194,2.12,2.12,0,0,1,.249-1.017,1.787,1.787,0,0,1,.681-.717,1.846,1.846,0,0,1,.952-.256,1.743,1.743,0,0,1,.791.2.427.427,0,0,0,.163.06.179.179,0,0,0,.128-.052.422.422,0,0,0,.1-.2Zm3.057,2.544h-1.431l-.251.583a.921.921,0,0,0-.093.322.192.192,0,0,0,.079.15.726.726,0,0,0,.349.082v.1h-1.164v-.1a.629.629,0,0,0,.3-.106,1.674,1.674,0,0,0,.308-.532l1.3-3.043h.1l1.287,3.076a1.443,1.443,0,0,0,.281.483.587.587,0,0,0,.355.122v.1H174.9v-.1a.539.539,0,0,0,.3-.073.189.189,0,0,0,.079-.153,1.124,1.124,0,0,0-.109-.379Zm-.077-.2-.627-1.494-.643,1.494Z" transform="translate(-81.663 -58.673)" fill="#fff"/>
    <path id="Path_21" data-name="Path 21" d="M125.506,127.359a1.2,1.2,0,0,0,.445.623,1.3,1.3,0,0,0,.757.209,1.543,1.543,0,0,0,.265-.025v.19a3.484,3.484,0,0,1-.841.118,1.932,1.932,0,0,1-1.038-.284,1.742,1.742,0,0,1-.685-.832,2.082,2.082,0,0,1-1.237-.751,2.192,2.192,0,0,1-.467-1.405,2.116,2.116,0,0,1,.636-1.573,2.375,2.375,0,0,1,3.222,0,2.13,2.13,0,0,1,.633,1.573,2.195,2.195,0,0,1-.5,1.43A1.93,1.93,0,0,1,125.506,127.359Zm-.555-4.122a.946.946,0,0,0-.866.583,3.067,3.067,0,0,0-.256,1.393,2.732,2.732,0,0,0,.383,1.608.935.935,0,0,0,1.477.006,2.574,2.574,0,0,0,.383-1.545,3.335,3.335,0,0,0-.24-1.47A.949.949,0,0,0,124.952,123.237Zm5.563,1.172v2.281a.848.848,0,0,0,.062.418.361.361,0,0,0,.252.1v.112h-1.187v-.389a1.53,1.53,0,0,1-.417.365.974.974,0,0,1-.467.112.7.7,0,0,1-.439-.15.747.747,0,0,1-.255-.355A2.59,2.59,0,0,1,128,126.2v-1.156a.82.82,0,0,0-.062-.412.363.363,0,0,0-.252-.106v-.115h1.187V126.4a1.74,1.74,0,0,0,.028.4.276.276,0,0,0,.094.137.248.248,0,0,0,.15.047.361.361,0,0,0,.2-.059,1.275,1.275,0,0,0,.3-.327v-1.558a.82.82,0,0,0-.062-.412.363.363,0,0,0-.252-.106v-.115Zm2.41,2.483a1.536,1.536,0,0,1-.957.471.569.569,0,0,1-.414-.162.559.559,0,0,1-.165-.412.8.8,0,0,1,.287-.6,5.373,5.373,0,0,1,1.25-.71v-.293a1.335,1.335,0,0,0-.037-.414.313.313,0,0,0-.134-.15.4.4,0,0,0-.224-.065.573.573,0,0,0-.333.09.159.159,0,0,0-.081.131.271.271,0,0,0,.087.162.4.4,0,0,1,.118.258.347.347,0,0,1-.115.262.414.414,0,0,1-.3.106.481.481,0,0,1-.33-.118.363.363,0,0,1-.131-.277.641.641,0,0,1,.177-.427,1.121,1.121,0,0,1,.5-.315,2.022,2.022,0,0,1,.661-.109,1.078,1.078,0,0,1,.655.177.818.818,0,0,1,.315.38,2.478,2.478,0,0,1,.043.6v1.131a1.163,1.163,0,0,0,.016.252.148.148,0,0,0,.047.075.111.111,0,0,0,.071.025q.081,0,.165-.115l.094.075a1.145,1.145,0,0,1-.324.337.7.7,0,0,1-.377.1.6.6,0,0,1-.39-.115A.536.536,0,0,1,132.925,126.892Zm0-.227v-.975a1.813,1.813,0,0,0-.561.473.574.574,0,0,0-.122.34.356.356,0,0,0,.1.252.282.282,0,0,0,.218.084A.6.6,0,0,0,132.925,126.664Zm2.787-3.568v3.621a.7.7,0,0,0,.072.4.393.393,0,0,0,.28.1v.112h-1.574v-.112a.379.379,0,0,0,.287-.112.7.7,0,0,0,.062-.38V123.7a.68.68,0,0,0-.071-.389.379.379,0,0,0-.278-.1V123.1Zm1.4-.1a.483.483,0,0,1,.483.483.456.456,0,0,1-.143.339.48.48,0,0,1-.679-.679A.456.456,0,0,1,137.112,123Zm.436,1.411v2.309a.7.7,0,0,0,.072.4.393.393,0,0,0,.28.1v.112h-1.573v-.112a.379.379,0,0,0,.286-.112.692.692,0,0,0,.063-.38v-1.7a.684.684,0,0,0-.072-.392.38.38,0,0,0-.277-.1v-.115Zm1.859-1.066v1.066h.692v.308h-.692v1.8a1.477,1.477,0,0,0,.022.327.255.255,0,0,0,.084.118.188.188,0,0,0,.109.043q.2,0,.383-.308l.094.069a.852.852,0,0,1-.82.6.736.736,0,0,1-.471-.153.688.688,0,0,1-.243-.346,2.946,2.946,0,0,1-.031-.574v-1.573h-.38v-.109a3.975,3.975,0,0,0,.666-.583,3.5,3.5,0,0,0,.483-.682Zm2.37,4.1-.941-2.159a2.719,2.719,0,0,0-.315-.6.526.526,0,0,0-.243-.156v-.115h1.548v.115a.36.36,0,0,0-.215.059.162.162,0,0,0-.062.128,1.505,1.505,0,0,0,.156.467l.5,1.141.339-.882a2.2,2.2,0,0,0,.184-.654.233.233,0,0,0-.078-.184.421.421,0,0,0-.268-.075v-.115h.975v.115a.361.361,0,0,0-.234.112,2.7,2.7,0,0,0-.3.645l-.832,2.159a4.737,4.737,0,0,1-.467,1,.669.669,0,0,1-.539.262.6.6,0,0,1-.42-.15.464.464,0,0,1-.159-.355.423.423,0,0,1,.109-.3.362.362,0,0,1,.274-.118.325.325,0,0,1,.249.1.437.437,0,0,1,.1.308.315.315,0,0,0,.028.153.084.084,0,0,0,.072.034.231.231,0,0,0,.159-.09,1.939,1.939,0,0,0,.293-.6ZM146.055,123a.483.483,0,1,1-.34.143A.46.46,0,0,1,146.055,123Zm.436,1.411v2.309a.7.7,0,0,0,.072.4.393.393,0,0,0,.28.1v.112H145.27v-.112a.38.38,0,0,0,.287-.112.7.7,0,0,0,.062-.38v-1.7a.684.684,0,0,0-.072-.392.379.379,0,0,0-.277-.1v-.115Zm1.893,0v.377a1.679,1.679,0,0,1,.43-.352.91.91,0,0,1,.442-.112.7.7,0,0,1,.471.159.75.75,0,0,1,.249.39,3.019,3.019,0,0,1,.05.682v1.134a.9.9,0,0,0,.059.42.366.366,0,0,0,.256.1v.112h-1.474v-.112a.308.308,0,0,0,.237-.137.9.9,0,0,0,.05-.386v-1.3a2.123,2.123,0,0,0-.028-.452.268.268,0,0,0-.1-.144.229.229,0,0,0-.147-.053q-.268,0-.5.383v1.561a.888.888,0,0,0,.059.414.316.316,0,0,0,.227.109v.112H147.2v-.112a.361.361,0,0,0,.262-.118.868.868,0,0,0,.053-.4v-1.645a.82.82,0,0,0-.062-.412.363.363,0,0,0-.252-.106v-.115Zm7.777-1.312v1.143h-.112a1.783,1.783,0,0,0-.221-.567.843.843,0,0,0-.333-.277,1.065,1.065,0,0,0-.414-.056h-.315V126.6a1.393,1.393,0,0,0,.034.4.341.341,0,0,0,.14.144.588.588,0,0,0,.286.059h.14v.115h-2.212v-.115h.14a.582.582,0,0,0,.3-.065.3.3,0,0,0,.128-.15,1.29,1.29,0,0,0,.034-.392V123.34h-.305a.888.888,0,0,0-.62.181,1.2,1.2,0,0,0-.343.72h-.118V123.1Zm1.3,1.224a1.35,1.35,0,0,1,.707.2,1.244,1.244,0,0,1,.5.558,1.819,1.819,0,0,1,.171.791,1.674,1.674,0,0,1-.315,1.037,1.241,1.241,0,0,1-1.05.5,1.2,1.2,0,0,1-1.013-.461,1.7,1.7,0,0,1-.355-1.069,1.724,1.724,0,0,1,.361-1.09A1.2,1.2,0,0,1,157.459,124.321Zm.012.221a.364.364,0,0,0-.274.121.846.846,0,0,0-.15.474q-.035.352-.034.982a4.173,4.173,0,0,0,.044.623.6.6,0,0,0,.146.337.348.348,0,0,0,.256.115.353.353,0,0,0,.234-.078.525.525,0,0,0,.162-.3,7.209,7.209,0,0,0,.062-1.2,2.939,2.939,0,0,0-.059-.726.556.556,0,0,0-.175-.29A.325.325,0,0,0,157.471,124.543Zm4.682-.134v2.281a.849.849,0,0,0,.062.418.363.363,0,0,0,.252.1v.112h-1.187v-.389a1.532,1.532,0,0,1-.418.365.974.974,0,0,1-.467.112.7.7,0,0,1-.44-.15.749.749,0,0,1-.255-.355,2.594,2.594,0,0,1-.065-.707v-1.156a.815.815,0,0,0-.063-.412.362.362,0,0,0-.252-.106v-.115h1.187V126.4a1.731,1.731,0,0,0,.028.4.277.277,0,0,0,.093.137.248.248,0,0,0,.15.047.362.362,0,0,0,.2-.059,1.29,1.29,0,0,0,.3-.327v-1.558a.814.814,0,0,0-.063-.412.362.362,0,0,0-.252-.106v-.115Zm2.011,0v.66a2.107,2.107,0,0,1,.508-.6.749.749,0,0,1,.421-.15.362.362,0,0,1,.277.109.407.407,0,0,1,.106.3.471.471,0,0,1-.1.324.31.31,0,0,1-.243.115.423.423,0,0,1-.287-.106,1.8,1.8,0,0,0-.143-.118.137.137,0,0,0-.072-.019.264.264,0,0,0-.172.069.646.646,0,0,0-.193.3,2.112,2.112,0,0,0-.1.667v.67l0,.174a.706.706,0,0,0,.022.227.256.256,0,0,0,.109.125.69.69,0,0,0,.249.047v.112h-1.573v-.112a.341.341,0,0,0,.255-.1.957.957,0,0,0,.069-.47v-1.611a1.224,1.224,0,0,0-.025-.318.252.252,0,0,0-.091-.128.484.484,0,0,0-.209-.056v-.115ZM166.556,123a.483.483,0,1,1-.34.143A.46.46,0,0,1,166.556,123Zm.436,1.411v2.309a.707.707,0,0,0,.071.4.4.4,0,0,0,.281.1v.112H165.77v-.112a.38.38,0,0,0,.287-.112.7.7,0,0,0,.062-.38v-1.7a.688.688,0,0,0-.071-.392.38.38,0,0,0-.278-.1v-.115Zm2.544-.081.047.994h-.106a1.549,1.549,0,0,0-.4-.6.648.648,0,0,0-.405-.162.3.3,0,0,0-.218.087.259.259,0,0,0-.09.2.257.257,0,0,0,.062.162,3.023,3.023,0,0,0,.558.44,2.219,2.219,0,0,1,.6.526.837.837,0,0,1,.146.483,1.022,1.022,0,0,1-.121.477.853.853,0,0,1-.343.359.979.979,0,0,1-.489.124,1.7,1.7,0,0,1-.558-.131.468.468,0,0,0-.128-.034q-.1,0-.172.156h-.1l-.05-1.047h.106a1.367,1.367,0,0,0,.383.617.746.746,0,0,0,.464.205.336.336,0,0,0,.243-.09.3.3,0,0,0,.1-.225.383.383,0,0,0-.094-.258,2.413,2.413,0,0,0-.417-.33,3.271,3.271,0,0,1-.617-.5.879.879,0,0,1-.206-.564.915.915,0,0,1,.23-.608.836.836,0,0,1,.673-.274.978.978,0,0,1,.458.115.3.3,0,0,0,.137.047.163.163,0,0,0,.09-.022.624.624,0,0,0,.109-.134Zm1.918.081v.383a1.646,1.646,0,0,1,.442-.365.961.961,0,0,1,.449-.106.81.81,0,0,1,.471.131.824.824,0,0,1,.293.4,1.869,1.869,0,0,1,.477-.405,1,1,0,0,1,.48-.124.755.755,0,0,1,.48.14.7.7,0,0,1,.249.352,2.312,2.312,0,0,1,.072.679v1.194a.875.875,0,0,0,.059.417.377.377,0,0,0,.256.106v.112h-1.505v-.112a.334.334,0,0,0,.262-.137.824.824,0,0,0,.056-.386v-1.253a2.33,2.33,0,0,0-.031-.5.283.283,0,0,0-.1-.156.241.241,0,0,0-.156-.053.462.462,0,0,0-.271.1,1.233,1.233,0,0,0-.278.293v1.564a.9.9,0,0,0,.053.4.324.324,0,0,0,.274.128v.112h-1.508v-.112a.334.334,0,0,0,.19-.059.256.256,0,0,0,.093-.131,1.363,1.363,0,0,0,.025-.333v-1.253a2.271,2.271,0,0,0-.031-.5.3.3,0,0,0-.106-.156.247.247,0,0,0-.156-.056.413.413,0,0,0-.227.065,1.265,1.265,0,0,0-.311.33v1.564a.918.918,0,0,0,.059.408.324.324,0,0,0,.256.115v.112h-1.5v-.112a.362.362,0,0,0,.262-.118.876.876,0,0,0,.053-.4v-1.645a.82.82,0,0,0-.062-.412.363.363,0,0,0-.252-.106v-.115Z" transform="translate(-79.232 -73.942)" fill="#fff"/>
    <path id="Path_22" data-name="Path 22" d="M141.12,117.6h40.9" transform="translate(-91.864 -70.923)" fill="#fff" stroke="#fff" stroke-width="0.1"/>
    <g id="Group_29" data-name="Group 29" transform="translate(0 25)">
      <path id="Path_50" data-name="Path 50" d="M50.407,0,52.86,7.537h7.934L54.379,12.2l2.443,7.547-6.415-4.66-6.415,4.66L46.445,12.2,40.03,7.537h7.934Z" transform="translate(38.066 -25.076)" fill="#caa368"/>
      <path id="Path_51" data-name="Path 51" d="M50.407,0,52.86,7.537h7.934L54.379,12.2l2.443,7.547-6.415-4.66-6.415,4.66L46.445,12.2,40.03,7.537h7.934Z" transform="translate(77.066 -25.076)" fill="#caa368"/>
      <path id="Path_52" data-name="Path 52" d="M50.407,0,52.86,7.537h7.934L54.379,12.2l2.443,7.547-6.415-4.66-6.415,4.66L46.445,12.2,40.03,7.537h7.934Z" transform="translate(-0.934 -25.076)" fill="#caa368"/>
      <path id="Path_53" data-name="Path 53" d="M50.407,0,52.86,7.537h7.934L54.379,12.2l2.443,7.547-6.415-4.66-6.415,4.66L46.445,12.2,40.03,7.537h7.934Z" transform="translate(-38.934 -25.076)" fill="#caa368"/>
    </g>
  </g>
</svg>
