<svg id="tripadvisor" xmlns="http://www.w3.org/2000/svg" width="37.552" height="22.328" viewBox="0 0 37.552 22.328">
  <g id="trip_advisor" transform="translate(0 0)">
    <path id="Path_47" data-name="Path 47" d="M35.641,7.037a8.363,8.363,0,0,1,1.66-3.1H31.074c-.1-.032-.21-.053-.315-.082C30.42,3.321,28.1.308,18.846.308c-10.16,0-11.961,3.63-11.961,3.63H.39a8.857,8.857,0,0,1,1.757,3.4,9.556,9.556,0,0,0,7.568,15.3,9.431,9.431,0,0,0,7.235-3.394L19.1,22.281l1.858-3.157a9.464,9.464,0,0,0,16.821-6.047A9.558,9.558,0,0,0,35.641,7.037ZM9.873,20.606a7.612,7.612,0,1,1,7.612-7.612A7.62,7.62,0,0,1,9.873,20.606ZM6.643,9.765a4.567,4.567,0,1,0,3.23-1.338A4.537,4.537,0,0,0,6.643,9.765Zm.717,5.741a3.552,3.552,0,1,1,2.512,1.04,3.529,3.529,0,0,1-2.512-1.04Zm.99-2.512a1.522,1.522,0,1,0,1.523-1.523A1.522,1.522,0,0,0,8.35,12.994Zm19.791,7.612a7.612,7.612,0,1,1,7.612-7.612A7.62,7.62,0,0,1,28.141,20.606ZM24.911,9.765a4.567,4.567,0,1,0,3.23-1.338A4.537,4.537,0,0,0,24.911,9.765Zm.717,5.741a3.552,3.552,0,1,1,2.512,1.04,3.529,3.529,0,0,1-2.512-1.04Zm.99-2.512a1.522,1.522,0,1,0,1.523-1.523A1.522,1.522,0,0,0,26.618,12.994Zm-7.8-11.672c6.407,0,8.817,2.715,8.817,2.715S20.783,2.874,18.5,11.472c-2.284-8.6-9.134-7.434-9.134-7.434s2.411-2.715,8.817-2.715Z" transform="translate(-0.231 -0.308)" fill="#fff" fill-rule="evenodd"/>
  </g>
</svg>
