<svg xmlns="http://www.w3.org/2000/svg" width="27.439" height="22.328" viewBox="0 0 27.439 22.328">
  <path id="twitter" d="M47.539,66.646a11.381,11.381,0,0,1-3.233.89,5.649,5.649,0,0,0,2.477-3.117,11.186,11.186,0,0,1-3.576,1.366,5.628,5.628,0,0,0-9.739,3.849,5.511,5.511,0,0,0,.145,1.285,15.954,15.954,0,0,1-11.606-5.89,5.645,5.645,0,0,0,1.744,7.524,5.494,5.494,0,0,1-2.553-.7v.07a5.634,5.634,0,0,0,4.518,5.524,5.667,5.667,0,0,1-1.483.2,5.311,5.311,0,0,1-1.058-.1,5.638,5.638,0,0,0,5.262,3.913,11.287,11.287,0,0,1-6.995,2.413,11.411,11.411,0,0,1-1.343-.081,15.769,15.769,0,0,0,8.623,2.547c10.362,0,16.025-8.588,16.025-16.037,0-.244-.006-.488-.017-.727A11.555,11.555,0,0,0,47.539,66.646Z" transform="translate(-20.1 -64)" fill="#fff"/>
</svg>
