<svg xmlns="http://www.w3.org/2000/svg" width="39.75" height="31.667" viewBox="0 0 39.75 31.667">
  <path id="wifi" d="M20,24.167a8.215,8.215,0,0,0-6.25,2.778c-1.389,1.667-3.889-.556-2.5-2.222a11.788,11.788,0,0,1,17.5,0c1.389,1.667-1.111,3.889-2.5,2.222A8.215,8.215,0,0,0,20,24.167Zm0,11.667A3.333,3.333,0,1,1,23.333,32.5,3.38,3.38,0,0,1,20,35.833Zm0-20A16.037,16.037,0,0,0,8.333,20.556c-1.389,1.389-4.028-.694-2.361-2.361A19.627,19.627,0,0,1,20,12.5a19.627,19.627,0,0,1,14.028,5.694c1.667,1.667-.972,3.75-2.361,2.361A16.037,16.037,0,0,0,20,15.833ZM20,7.5A24.552,24.552,0,0,0,3.055,14.167C1.389,15.694-.972,13.333.694,11.806a28.215,28.215,0,0,1,38.611,0c1.667,1.528-.694,3.889-2.361,2.361A24.552,24.552,0,0,0,20,7.5Z" transform="translate(-0.125 -4.167)" fill="#caa368"/>
</svg>
